<?xml version="1.0" standalone="no"?>
<!DOCTYPE svg PUBLIC "-//W3C//DTD SVG 1.1//EN" "http://www.w3.org/Graphics/SVG/1.1/DTD/svg11.dtd" >
<svg xmlns="http://www.w3.org/2000/svg" xmlns:xlink="http://www.w3.org/1999/xlink" version="1.1">
<metadata>
Created by FontForge 20170731 at Fri Jul 20 05:06:57 2012
 By Aleksey,,,
(c) 2000-2012 Typodermic Fonts Inc. See attached license agreement. If agreement is missing visit typodermicfonts.com for more info.
</metadata>
<defs>
<font id="GyparodyRg-Regular" horiz-adv-x="546" >
  <font-face 
    font-family="Gyparody Rg"
    font-weight="400"
    font-stretch="normal"
    units-per-em="1000"
    panose-1="2 11 6 6 6 0 0 2 0 4"
    ascent="811"
    descent="-189"
    cap-height="803"
    bbox="-184 -189 1057 996"
    underline-thickness="50"
    underline-position="-175"
    unicode-range="U+0017-E001"
  />
<missing-glyph horiz-adv-x="468" 
d="M138 0q-95 0 -95 79v644q0 80 95 80h189q97 0 97 -80v-644q0 -79 -97 -79h-189zM373 723q0 37 -46 37h-189q-45 0 -45 -37v-644q0 -37 45 -37h189q46 0 46 37v644z" />
    <glyph glyph-name="copyright" unicode="&#x28;C&#x29;" horiz-adv-x="671" 
d="M627 321q0 -334 -283 -334q-299 0 -299 334v162q0 334 299 334q283 0 283 -334v-162zM593 483q0 300 -249 300q-265 0 -265 -300v-162q0 -301 265 -301q249 0 249 301v162zM247 192q-28 0 -40 9t-12 33v304q0 22 3 35t11.5 20.5t22.5 10t35 2.5h144q21 0 35 -2.5
t21.5 -10t10.5 -20.5t3 -35v-212h-54v162q0 23 -7.5 30t-29.5 7h-101q-22 0 -30.5 -7t-8.5 -30v-240q0 -24 30 -24h121q26 0 26 21v28h54v-41q0 -23 -10 -31.5t-39 -8.5h-185z" />
    <glyph glyph-name="registered" unicode="&#x28;R&#x29;" horiz-adv-x="671" 
d="M627 321q0 -334 -283 -334q-299 0 -299 334v162q0 334 299 334q283 0 283 -334v-162zM593 483q0 300 -249 300q-265 0 -265 -300v-162q0 -301 265 -301q249 0 249 301v162zM446 191q-19 0 -19 22v53q0 14 -8 21.5t-32 7.5h-138v-104h-56v415h225q19 0 31.5 -2.5
t19.5 -9.5t9.5 -20.5t2.5 -35.5v-177q0 -43 -40 -46q20 -3 30 -12.5t10 -34.5v-57q0 -9 3.5 -13t8.5 -7h-47zM427 489q0 22 -6.5 29t-25.5 7h-146v-198h138q24 0 32 7t8 19v136z" />
    <glyph glyph-name="uni2117" unicode="&#x28;P&#x29;" horiz-adv-x="671" 
d="M627 321q0 -334 -283 -334q-299 0 -299 334v162q0 334 299 334q283 0 283 -334v-162zM593 483q0 300 -249 300q-265 0 -265 -300v-162q0 -301 265 -301q249 0 249 301v162zM427 479q0 24 -8.5 32t-29.5 8h-139v-190h143q18 0 26 6.5t8 25.5v118zM250 297v-105h-55v414
h225q18 0 30 -2.5t18.5 -10t9.5 -21t3 -34.5v-187q0 -35 -11 -44.5t-40 -9.5h-180z" />
    <glyph glyph-name=".notdef" horiz-adv-x="468" 
d="M138 0q-95 0 -95 79v644q0 80 95 80h189q97 0 97 -80v-644q0 -79 -97 -79h-189zM373 723q0 37 -46 37h-189q-45 0 -45 -37v-644q0 -37 45 -37h189q46 0 46 37v644z" />
    <glyph glyph-name=".null" horiz-adv-x="77" 
 />
    <glyph glyph-name="nonmarkingreturn" horiz-adv-x="77" 
 />
    <glyph glyph-name="uni0017" horiz-adv-x="213" 
 />
    <glyph glyph-name="space" unicode=" " horiz-adv-x="213" 
 />
    <glyph glyph-name="exclam" unicode="!" horiz-adv-x="232" 
d="M59 0v116h114v-116h-114zM59 173v630h114v-630h-114z" />
    <glyph glyph-name="quotedbl" unicode="&#x22;" horiz-adv-x="354" 
d="M237 589l-16 214h89l-16 -214h-57zM61 589l-16 214h89l-16 -214h-57z" />
    <glyph glyph-name="numbersign" unicode="#" horiz-adv-x="519" 
d="M344 537h-116l-39 -266h115zM262 0l34 221h-115l-35 -221h-42l34 221h-99v50h106l40 265h-106v51h115l31 216h44l-32 -216h115l34 216h42l-33 -216h93v-51h-100l-42 -265h102v-50h-108l-35 -221h-43z" />
    <glyph glyph-name="dollar" unicode="$" horiz-adv-x="517" 
d="M283 0v106h-41v-106h-21v106h-101q-44 0 -59.5 12.5t-15.5 50.5v62h84v-36q0 -20 9 -27t32 -7h51v130h-111q-37 0 -51 11.5t-14 42.5v266q0 32 4 52t16 31t32.5 15t53.5 4h70v90h21v-90h41v90h21v-90h67q31 0 51 -4t31 -15t15.5 -31t4.5 -52v-191h-81v120q0 34 -11 44.5
t-40 10.5h-37v-246h109q32 0 45.5 -12t13.5 -43v-125q0 -38 -16 -50.5t-59 -12.5h-93v-106h-21zM283 595h-41v-246h41v246zM221 595h-39q-32 0 -42.5 -10t-10.5 -45v-162q0 -29 34 -29h58v246zM283 291h-41v-130h41v130zM392 260q0 17 -7.5 24t-23.5 7h-57v-130h49
q21 0 30 7t9 26v66z" />
    <glyph glyph-name="percent" unicode="%" horiz-adv-x="741" 
d="M45 0zM85 409q-23 0 -31.5 9t-8.5 32v294q0 21 2.5 34t8.5 20t17 9.5t28 2.5h116q17 0 28 -2.5t17 -9.5t8.5 -20t2.5 -34v-294q0 -23 -9 -32t-31 -9h-148zM225 691q0 23 -6.5 30.5t-25.5 7.5h-69q-19 0 -25 -7.5t-6 -30.5v-228q0 -14 5 -19.5t19 -5.5h84q24 0 24 25v228z
M97 -38l501 878h47l-499 -878h-49zM507 -10q-23 0 -31.5 9t-8.5 32v294q0 21 2.5 34t8.5 20t17 9.5t28 2.5h116q17 0 28 -2.5t17 -9.5t8.5 -20t2.5 -34v-294q0 -23 -9 -32t-31 -9h-148zM647 272q0 23 -6.5 30.5t-25.5 7.5h-69q-19 0 -25 -7.5t-6 -30.5v-228q0 -14 5 -19.5
t19 -5.5h84q24 0 24 25v228z" />
    <glyph glyph-name="ampersand" unicode="&#x26;" horiz-adv-x="573" 
d="M504 -18l-75 83l-24 -18q-29 -22 -62.5 -34.5t-72.5 -12.5h-137q-27 0 -44 4.5t-26.5 16t-13.5 29.5t-4 45v28q0 23 1.5 39.5t6 29.5t12 23t20.5 19l116 84l-102 114q-15 17 -25 29t-15.5 23.5t-8 24t-2.5 30.5v131q0 42 4.5 68.5t17 40.5t34.5 19t56 5h211q34 0 55.5 -5
t34 -19.5t17 -40.5t4.5 -68v-127q0 -30 -2.5 -51t-10 -37.5t-20 -30t-31.5 -26.5l-127 -88l145 -162l78 61l37 -47l-75 -59l75 -82zM368 438q14 11 19.5 24.5t5.5 36.5v73q0 43 -10 57.5t-43 14.5h-151q-33 0 -43 -14.5t-10 -57.5v-46q0 -25 4.5 -39t17.5 -28l93 -103z
M241 272l-91 -62q-15 -11 -19.5 -26.5t-4.5 -38.5v-36q0 -28 10.5 -39.5t39.5 -11.5h92q30 0 60.5 14.5t59.5 37.5z" />
    <glyph glyph-name="quotesingle" unicode="'" horiz-adv-x="179" 
d="M61 589l-16 214h89l-16 -214h-57z" />
    <glyph glyph-name="parenleft" unicode="(" horiz-adv-x="344" 
d="M150 0q-45 0 -63 17.5t-18 64.5v588q0 42 4.5 68.5t17 40.5t34.5 19t56 5h119v-163h-73q-18 0 -30.5 -3t-19.5 -11.5t-10 -23.5t-3 -38v-455q0 -28 11.5 -39.5t37.5 -11.5h87v-58h-150z" />
    <glyph glyph-name="parenright" unicode=")" horiz-adv-x="345" 
d="M45 0v58h82q26 0 37.5 11.5t11.5 39.5v455q0 44 -13 60t-50 16h-68v163h119q34 0 55.5 -5t34 -19t17 -40.5t4.5 -68.5v-588q0 -47 -17.5 -64.5t-62.5 -17.5h-150z" />
    <glyph glyph-name="asterisk" unicode="*" horiz-adv-x="457" 
d="M241 599l6 -168h-32l5 168l-142 -89l-16 27l148 80l-148 79l16 27l142 -88l-4 168h31l-6 -168l144 88l15 -27l-148 -79l148 -80l-15 -27z" />
    <glyph glyph-name="plus" unicode="+" horiz-adv-x="563" 
d="M262 138v217h-217v39h217v217h39v-217h217v-39h-217v-217h-39z" />
    <glyph glyph-name="comma" unicode="," horiz-adv-x="180" 
d="M45 -107v34h22q14 0 14 17v56h-24v106h79v-138q0 -12 -1.5 -25t-7 -24.5t-15.5 -18.5t-26 -7h-41z" />
    <glyph glyph-name="hyphen" unicode="-" horiz-adv-x="225" 
d="M18 236v49h188v-49h-188z" />
    <glyph glyph-name="period" unicode="." horiz-adv-x="169" 
d="M45 0v134h78v-134h-78z" />
    <glyph glyph-name="slash" unicode="/" horiz-adv-x="266" 
d="M10 0l200 803h42l-198 -803h-44z" />
    <glyph glyph-name="zero" unicode="0" 
d="M125 0q-45 0 -62.5 17.5t-17.5 64.5v588q0 42 4.5 68.5t17 40.5t34 19t55.5 5h232q34 0 56 -5t34.5 -19t17 -40.5t4.5 -68.5v-588q0 -47 -17.5 -64.5t-62.5 -17.5h-295zM405 564q0 46 -13.5 61t-50.5 15h-138q-19 0 -31 -3t-19 -11.5t-10 -23.5t-3 -38v-455
q0 -28 11 -39.5t38 -11.5h167q26 0 37.5 11.5t11.5 39.5v455z" />
    <glyph glyph-name="one" unicode="1" horiz-adv-x="323" 
d="M164 0v680q0 6 -5 6q-4 0 -6 -5l-90 -191l-56 30l137 283h134v-803h-114z" />
    <glyph glyph-name="two" unicode="2" horiz-adv-x="552" 
d="M44 0v109q0 48 17.5 74t59.5 41l229 83q31 11 42.5 31t11.5 49v178q0 22 -2.5 36.5t-9.5 23t-19.5 12t-32.5 3.5h-140q-17 0 -28.5 -3t-18 -11.5t-9 -23t-2.5 -37.5v-209h-99v314q0 42 4.5 68.5t16.5 40.5t33 19t54 5h244q35 0 57 -5.5t34.5 -20t17 -40.5t4.5 -67v-294
q0 -32 -15.5 -61.5t-57.5 -45.5l-244 -92q-26 -10 -38 -27t-12 -46v-46h369v-58h-466z" />
    <glyph glyph-name="three" unicode="3" horiz-adv-x="548" 
d="M124 0q-45 0 -62.5 17.5t-17.5 64.5v103h97v-76q0 -27 10.5 -39t36.5 -12h173q24 0 34 13.5t10 40.5v56q0 36 -16.5 50.5t-53.5 14.5h-117v56h117q36 0 53 14t17 49v218q0 42 -11.5 56t-45.5 14h-144q-36 0 -49.5 -15t-13.5 -61v-205h-97v311q0 42 4.5 68.5t17 40.5
t34 19t56.5 5h244q32 0 52.5 -4.5t32 -18t15.5 -38t4 -63.5v-318q0 -27 -5 -45.5t-14.5 -30t-25 -17.5t-36.5 -8q21 -2 36.5 -6.5t25 -15t14.5 -28.5t5 -46v-72q0 -48 -15 -70t-56 -22h-309z" />
    <glyph glyph-name="four" unicode="4" horiz-adv-x="585" 
d="M387 0v126h-365v89l310 588h159v-608h78v-69h-78v-126h-104zM387 621q0 7 -6 7t-8 -5l-241 -414q-3 -6 -3 -14h258v426z" />
    <glyph glyph-name="five" unicode="5" horiz-adv-x="554" 
d="M123 0q-45 0 -62.5 17.5t-17.5 64.5v81h98v-54q0 -27 10.5 -39t36.5 -12h172q32 0 44 12t12 47v95q0 39 -14.5 55t-50.5 16h-308v520h471v-163h-373v-300h258q33 0 55 -6t35 -20.5t18.5 -39t5.5 -61.5v-114q0 -31 -4 -50t-15 -30t-29.5 -15t-46.5 -4h-295z" />
    <glyph glyph-name="six" unicode="6" horiz-adv-x="550" 
d="M125 0q-45 0 -62.5 17.5t-17.5 64.5v588q0 42 4.5 68.5t17 40.5t34 19t55.5 5h238q34 0 56 -5t34.5 -19t17 -40.5t4.5 -68.5v-277h-103v171q0 46 -13.5 61t-50.5 15h-133q-19 0 -31 -3t-19 -11.5t-10 -23.5t-3 -38v-217q0 -39 40 -39h235q52 0 68.5 -21t16.5 -68v-137
q0 -47 -20 -64.5t-70 -17.5h-288zM407 196q0 29 -12 41.5t-40 12.5h-172q-14 0 -25 5.5t-15 16.5v-163q0 -28 11 -39.5t38 -11.5h161q29 0 41.5 12t12.5 40v86z" />
    <glyph glyph-name="seven" unicode="7" horiz-adv-x="492" 
d="M114 0q5 79 26 166.5t55 171.5t79 158.5t99 128.5q4 4 4 9q0 6 -8 6h-344v163h437v-197q-48 -51 -88 -116.5t-68.5 -139.5t-44 -153.5t-15.5 -157.5q0 -11 0.5 -21t1.5 -18h-134z" />
    <glyph glyph-name="eight" unicode="8" horiz-adv-x="562" 
d="M116 0q-42 0 -57 22t-15 70v69q0 28 5 46t14.5 28.5t25 15.5t36.5 7q-42 4 -61.5 25t-19.5 76v320q0 39 4 63.5t15.5 38t32 18t53.5 4.5h265q32 0 52.5 -4.5t32 -18t15.5 -38t4 -63.5v-320q0 -55 -19.5 -76t-61.5 -25q21 -2 36.5 -7t25 -15.5t14.5 -28.5t5 -46v-69
q0 -48 -15 -70t-56 -22h-331zM417 570q0 43 -11.5 56.5t-45.5 13.5h-160q-34 0 -45 -13.5t-11 -56.5v-222q0 -36 16 -49.5t54 -13.5h133q38 0 54 13.5t16 49.5v222zM417 162q0 38 -16 51.5t-54 13.5h-133q-38 0 -54 -13.5t-16 -51.5v-50q0 -27 10 -40.5t34 -13.5h185
q24 0 34 13.5t10 40.5v50z" />
    <glyph glyph-name="nine" unicode="9" horiz-adv-x="548" 
d="M130 0q-50 0 -69 18t-19 67v83h103v-60q0 -27 12 -38.5t41 -11.5h159q26 0 37 11.5t11 38.5v131q0 39 -40 39h-234q-26 0 -43 5t-26.5 16t-13 27.5t-3.5 40.5v303q0 42 5 68.5t16.5 40.5t31 19t48.5 5h262q28 0 46.5 -5t29 -19t15 -40.5t4.5 -68.5v-588
q0 -47 -17.5 -64.5t-63.5 -17.5h-292zM405 563q0 24 -3 39t-10 23.5t-19.5 11.5t-30.5 3h-136q-38 0 -51.5 -15.5t-13.5 -62.5v-168q0 -29 12 -41.5t40 -12.5h172q14 0 25 -5.5t15 -16.5v245z" />
    <glyph glyph-name="colon" unicode=":" horiz-adv-x="200" 
d="M64 106v135h79v-135h-79zM64 333v134h79v-134h-79z" />
    <glyph glyph-name="semicolon" unicode=";" horiz-adv-x="180" 
d="M57 227v134h79v-134h-79zM45 -107v34h22q14 0 14 17v56h-24v106h79v-138q0 -12 -1.5 -25t-7 -24.5t-15.5 -18.5t-26 -7h-41z" />
    <glyph glyph-name="less" unicode="&#x3c;" horiz-adv-x="563" 
d="M45 348v53l473 191v-41l-433 -176l433 -176v-41z" />
    <glyph glyph-name="equal" unicode="=" horiz-adv-x="563" 
d="M45 243v39h473v-39h-473zM45 468v39h473v-39h-473z" />
    <glyph glyph-name="greater" unicode="&#x3e;" horiz-adv-x="563" 
d="M45 158v41l433 176l-433 176v41l473 -191v-53z" />
    <glyph glyph-name="question" unicode="?" horiz-adv-x="539" 
d="M195 158v45q0 16 3 28.5t10.5 23t21 21t34.5 24.5l93 57q21 13 30.5 31t9.5 53v122q0 46 -8.5 61.5t-36.5 15.5h-166q-26 0 -36.5 -15t-10.5 -61v-177h-101v283q0 43 4 69t13 40t24 19t38 5h308q24 0 39 -5t24 -19t12.5 -40.5t3.5 -68.5v-220q0 -25 -3 -43t-10 -32.5
t-20 -27t-32 -24.5l-120 -75q-14 -9 -20 -17.5t-6 -27.5v-45h-98zM195 0v116h99v-116h-99z" />
    <glyph glyph-name="at" unicode="@" horiz-adv-x="532" 
d="M200 0q-86 0 -120.5 38t-34.5 118v514q0 71 19.5 102t76.5 31h254q24 0 41.5 -6t28.5 -21t16 -41t5 -65v-512h-213q-42 0 -52.5 22t-10.5 58v128q0 32 15 51t55 19h156v130q0 44 -12.5 59t-38.5 15h-223q-32 0 -44 -18.5t-12 -61.5v-403q0 -47 21.5 -73t72.5 -26h286v-58
h-286zM436 395h-135q-41 0 -41 -44v-93q0 -23 6.5 -35t31.5 -12h138v184z" />
    <glyph glyph-name="A" unicode="A" horiz-adv-x="535" 
d="M409 0l-21 185h-244l-19 -185h-103l77 754q5 49 42 49h258q19 0 28 -13t11 -36l75 -754h-104zM342 622q-3 24 -19 24h-116q-15 0 -18 -24l-40 -370q0 -8 9 -8h216q8 0 8 8z" />
    <glyph glyph-name="B" unicode="B" horiz-adv-x="568" 
d="M418 162q0 38 -16 51.5t-54 13.5h-197v-169h223q24 0 34 13.5t10 40.5v50zM418 570q0 43 -11 56.5t-45 13.5h-211v-355h197q38 0 54 13.5t16 49.5v222zM49 0v803h370q32 0 52.5 -4.5t32 -18t15.5 -38t4 -63.5v-322q0 -55 -19.5 -76t-61.5 -25q21 -2 36.5 -7t25 -15.5
t14.5 -28.5t5 -46v-67q0 -48 -15 -70t-56 -22h-403z" />
    <glyph glyph-name="C" unicode="C" horiz-adv-x="549" 
d="M125 0q-45 0 -62.5 17.5t-17.5 64.5v588q0 42 4.5 68.5t17 40.5t34 19t55.5 5h238q34 0 56 -5t34.5 -19t17 -40.5t4.5 -68.5v-459h-103v353q0 46 -13.5 61t-50.5 15h-132q-18 0 -30 -3t-19 -11.5t-10 -23.5t-3 -38v-455q0 -28 11 -39.5t37 -11.5h310v-58h-378z" />
    <glyph glyph-name="D" unicode="D" horiz-adv-x="550" 
d="M49 0v803h344q34 0 56 -5t34.5 -19t17 -40.5t4.5 -68.5v-588q0 -47 -18 -64.5t-63 -17.5h-375zM410 564q0 46 -13.5 61t-50.5 15h-201v-582h216q26 0 37.5 11.5t11.5 39.5v455z" />
    <glyph glyph-name="E" unicode="E" horiz-adv-x="517" 
d="M125 0q-45 0 -62.5 17.5t-17.5 64.5v588q0 42 4.5 68.5t17 40.5t34 19t55.5 5h321v-163h-268q-18 0 -30 -3t-19 -11.5t-10 -23.5t-3 -38v-264q0 -15 15 -15h310v-58h-310q-15 0 -15 -18v-100q0 -28 11 -39.5t37 -11.5h282v-58h-352z" />
    <glyph glyph-name="F" unicode="F" horiz-adv-x="504" 
d="M163 227q-15 0 -15 -18v-209h-102v670q0 42 4.5 68.5t17 40.5t34.5 19t56 5h321v-163h-268q-18 0 -30.5 -3t-19.5 -11.5t-10 -23.5t-3 -38v-264q0 -15 15 -15h303v-58h-303z" />
    <glyph glyph-name="G" unicode="G" horiz-adv-x="550" 
d="M125 0q-45 0 -62.5 17.5t-17.5 64.5v588q0 42 4.5 68.5t17 40.5t34 19t55.5 5h238q34 0 56 -5.5t34.5 -20t17 -40.5t4.5 -67v-283h-103v177q0 44 -12.5 60t-51.5 16h-132q-18 0 -30 -3t-19 -11.5t-10 -23.5t-3 -38v-455q0 -28 10.5 -39.5t37.5 -11.5h196q19 0 19 19v174
h-129v58h224v-309h-378z" />
    <glyph glyph-name="H" unicode="H" horiz-adv-x="577" 
d="M416 0v227h-255v-227h-112v803h112v-518h255v518h110v-803h-110z" />
    <glyph glyph-name="I" unicode="I" horiz-adv-x="216" 
d="M53 0v803h110v-803h-110z" />
    <glyph glyph-name="J" unicode="J" horiz-adv-x="538" 
d="M118 0q-45 0 -63 17.5t-18 64.5v226h104v-199q0 -28 11 -39.5t37 -11.5h149q26 0 37 11.5t11 39.5v694h105v-721q0 -47 -17.5 -64.5t-62.5 -17.5h-293z" />
    <glyph glyph-name="K" unicode="K" horiz-adv-x="560" 
d="M403 0l-241 243q-4 4 -11 4h-2v-247h-100v803h100v-475h2q7 0 11 5l272 470h119l-325 -518l293 -285h-118z" />
    <glyph glyph-name="L" unicode="L" horiz-adv-x="526" 
d="M49 0v803h104v-727q0 -18 18 -18h206q18 0 18 18v232h100v-308h-446z" />
    <glyph glyph-name="M" unicode="M" horiz-adv-x="699" 
d="M551 0v526h-4q-7 0 -10 -9l-142 -507q-3 -10 -14 -10h-64q-11 0 -14 10l-142 507q-3 9 -10 9h-4v-526h-98v803h76q43 0 55 -45l162 -601q2 -5 7 -5t7 5l162 601q12 45 55 45h76v-803h-98z" />
    <glyph glyph-name="N" unicode="N" horiz-adv-x="614" 
d="M473 0q-21 0 -31 6t-18 23l-252 489q-5 9 -13 9h-8v-527h-102v803h81q22 0 32.5 -8.5t18.5 -26.5l274 -626q2 -5 7 -5h2v666h100v-803h-91z" />
    <glyph glyph-name="O" unicode="O" 
d="M125 0q-45 0 -62.5 17.5t-17.5 64.5v588q0 42 4.5 68.5t17 40.5t34 19t55.5 5h232q34 0 56 -5t34.5 -19t17 -40.5t4.5 -68.5v-588q0 -47 -17.5 -64.5t-62.5 -17.5h-295zM405 564q0 46 -13.5 61t-50.5 15h-138q-19 0 -31 -3t-19 -11.5t-10 -23.5t-3 -38v-455
q0 -28 11 -39.5t38 -11.5h167q26 0 37.5 11.5t11.5 39.5v455z" />
    <glyph glyph-name="P" unicode="P" horiz-adv-x="534" 
d="M154 203v-203h-105v803h360q29 0 48 -5t30.5 -19.5t16 -40.5t4.5 -68v-379q0 -27 -4 -44t-14 -27t-25.5 -13.5t-38.5 -3.5h-272zM408 563q0 24 -3 39t-11.5 23.5t-23.5 11.5t-38 3h-178v-380h202q29 0 40.5 11.5t11.5 40.5v251z" />
    <glyph glyph-name="Q" unicode="Q" horiz-adv-x="556" 
d="M232 -107q6 11 8 22.5t2 20.5v27q0 23 -9.5 30t-34.5 7h-73q-45 0 -62.5 17.5t-17.5 64.5v588q0 42 4.5 68.5t17 40.5t34 19t55.5 5h244q34 0 55.5 -5t34 -19t17 -40.5t4.5 -68.5v-588q0 -47 -17.5 -64.5t-62.5 -17.5h-72q-25 0 -34.5 -7t-9.5 -30v-27q0 -9 2 -20.5
t8 -22.5h-93zM416 564q0 46 -13.5 61t-49.5 15h-150q-18 0 -30.5 -3t-19.5 -11.5t-10 -23.5t-3 -38v-455q0 -28 11 -39.5t38 -11.5h179q26 0 37 11.5t11 39.5v455z" />
    <glyph glyph-name="R" unicode="R" horiz-adv-x="561" 
d="M454 0q-33 0 -33 43v109q0 38 -16 51.5t-54 13.5h-200v-217h-102v803h363q32 0 52.5 -5t32 -19t16 -40t4.5 -69v-322q0 -27 -5 -45.5t-15 -30t-25 -17.5t-36 -8q21 -2 36 -6.5t25 -15t15 -28.5t5 -46v-112q0 -17 4.5 -25t14.5 -14h-82zM421 565q0 46 -11.5 60.5
t-45.5 14.5h-213v-365h200q38 0 54 13t16 49v228z" />
    <glyph glyph-name="S" unicode="S" horiz-adv-x="549" 
d="M38 0v58h324q27 0 37.5 11t10.5 40v76q0 23 -9 32.5t-31 9.5h-263q-38 0 -53.5 15t-15.5 55v373q0 42 4.5 68.5t17.5 40.5t34.5 19t56.5 5h250q33 0 54 -5.5t33 -20t16 -40.5t4 -67v-290h-98v185q0 44 -12 59.5t-46 15.5h-152q-19 0 -31 -3t-19.5 -11.5t-10.5 -23
t-3 -37.5v-236q0 -24 10 -34t33 -10h266q35 0 48.5 -15.5t13.5 -55.5v-131q0 -25 -4 -41t-13 -25.5t-24 -13t-38 -3.5h-390z" />
    <glyph glyph-name="T" unicode="T" horiz-adv-x="497" 
d="M198 0v622q0 18 -21 18h-160v163h461v-163h-160q-12 0 -16.5 -4.5t-4.5 -13.5v-622h-99z" />
    <glyph glyph-name="U" unicode="U" horiz-adv-x="555" 
d="M127 0q-45 0 -63 17.5t-18 64.5v721h100v-694q0 -28 11.5 -39.5t37.5 -11.5h209v745h101v-803h-378z" />
    <glyph glyph-name="V" unicode="V" horiz-adv-x="556" 
d="M192 0l-170 803h111l138 -740q1 -6 7 -6q5 0 7 6l137 740h112l-170 -803h-172z" />
    <glyph glyph-name="W" unicode="W" horiz-adv-x="705" 
d="M456 0q-11 14 -27 42.5t-32 66t-28.5 81.5t-16.5 90q-5 -47 -17.5 -91.5t-28 -81.5t-31.5 -64.5t-26 -42.5h-100q-18 25 -37.5 67.5t-35.5 99t-26.5 125.5t-10.5 146v365h103v-351q0 -80 7.5 -141t18.5 -106.5t23.5 -77t23.5 -53.5q13 23 29.5 58.5t31.5 83.5t25 108.5
t10 133.5v345h82v-345q0 -73 10 -133.5t25 -108.5t32 -83.5t30 -58.5q10 22 22.5 53.5t24 77t19 106.5t7.5 141v351h102v-365q0 -77 -10 -146t-26 -125.5t-35.5 -99t-37.5 -67.5h-100z" />
    <glyph glyph-name="X" unicode="X" horiz-adv-x="593" 
d="M426 0l-120 174q-3 6 -9 6q-7 0 -10 -6l-119 -174h-112l160 225l-206 578h121l157 -507q2 -7 9 -7q6 0 8 7l158 507h120l-206 -578l161 -225h-112z" />
    <glyph glyph-name="Y" unicode="Y" 
d="M43 0v58h307q26 0 37 11.5t11 39.5v94h-275q-45 0 -62.5 17.5t-17.5 64.5v518h100v-491q0 -28 11 -40t38 -12h206v543h100v-721q0 -47 -17 -64.5t-62 -17.5h-376z" />
    <glyph glyph-name="Z" unicode="Z" horiz-adv-x="530" 
d="M31 0v31q0 18 4 29t12 24l360 533q5 8 5 16q0 7 -8 7h-373v163h467v-152q0 -26 -6.5 -49t-20.5 -43l-337 -487q-3 -5 -3 -8q0 -6 9 -6h358v-58h-467z" />
    <glyph glyph-name="bracketleft" unicode="[" horiz-adv-x="343" 
d="M68 0v803h230v-163h-135v-582h135v-58h-230z" />
    <glyph glyph-name="backslash" unicode="\" horiz-adv-x="261" 
d="M208 0l-198 803h41l201 -803h-44z" />
    <glyph glyph-name="bracketright" unicode="]" horiz-adv-x="344" 
d="M45 0v58h135v582h-135v163h230v-803h-230z" />
    <glyph glyph-name="asciicircum" unicode="^" horiz-adv-x="524" 
d="M438 330l-176 433l-175 -433h-42l191 473h53l190 -473h-41z" />
    <glyph glyph-name="underscore" unicode="_" horiz-adv-x="469" 
d="M7 -98v41h455v-41h-455z" />
    <glyph glyph-name="grave" unicode="`" horiz-adv-x="302" 
d="M45 943v42l211 -88v-42z" />
    <glyph glyph-name="a" unicode="a" horiz-adv-x="535" 
d="M22 0zM409 0l-21 185h-244l-19 -185h-103l77 754q5 49 42 49h258q19 0 28 -13t11 -36l75 -754h-104zM342 622q-3 24 -19 24h-116q-15 0 -18 -24l-40 -370q0 -8 9 -8h216q8 0 8 8z" />
    <glyph glyph-name="b" unicode="b" horiz-adv-x="568" 
d="M49 0zM418 162q0 38 -16 51.5t-54 13.5h-197v-169h223q24 0 34 13.5t10 40.5v50zM418 570q0 43 -11 56.5t-45 13.5h-211v-355h197q38 0 54 13.5t16 49.5v222zM49 0v803h370q32 0 52.5 -4.5t32 -18t15.5 -38t4 -63.5v-322q0 -55 -19.5 -76t-61.5 -25q21 -2 36.5 -7
t25 -15.5t14.5 -28.5t5 -46v-67q0 -48 -15 -70t-56 -22h-403z" />
    <glyph glyph-name="c" unicode="c" horiz-adv-x="549" 
d="M45 0zM125 0q-45 0 -62.5 17.5t-17.5 64.5v588q0 42 4.5 68.5t17 40.5t34 19t55.5 5h238q34 0 56 -5t34.5 -19t17 -40.5t4.5 -68.5v-459h-103v353q0 46 -13.5 61t-50.5 15h-132q-18 0 -30 -3t-19 -11.5t-10 -23.5t-3 -38v-455q0 -28 11 -39.5t37 -11.5h310v-58h-378z" />
    <glyph glyph-name="d" unicode="d" horiz-adv-x="550" 
d="M49 0zM49 0v803h344q34 0 56 -5t34.5 -19t17 -40.5t4.5 -68.5v-588q0 -47 -18 -64.5t-63 -17.5h-375zM410 564q0 46 -13.5 61t-50.5 15h-201v-582h216q26 0 37.5 11.5t11.5 39.5v455z" />
    <glyph glyph-name="e" unicode="e" horiz-adv-x="517" 
d="M45 0zM125 0q-45 0 -62.5 17.5t-17.5 64.5v588q0 42 4.5 68.5t17 40.5t34 19t55.5 5h321v-163h-268q-18 0 -30 -3t-19 -11.5t-10 -23.5t-3 -38v-264q0 -15 15 -15h310v-58h-310q-15 0 -15 -18v-100q0 -28 11 -39.5t37 -11.5h282v-58h-352z" />
    <glyph glyph-name="f" unicode="f" horiz-adv-x="504" 
d="M46 0zM163 227q-15 0 -15 -18v-209h-102v670q0 42 4.5 68.5t17 40.5t34.5 19t56 5h321v-163h-268q-18 0 -30.5 -3t-19.5 -11.5t-10 -23.5t-3 -38v-264q0 -15 15 -15h303v-58h-303z" />
    <glyph glyph-name="g" unicode="g" horiz-adv-x="550" 
d="M45 0zM125 0q-45 0 -62.5 17.5t-17.5 64.5v588q0 42 4.5 68.5t17 40.5t34 19t55.5 5h238q34 0 56 -5.5t34.5 -20t17 -40.5t4.5 -67v-283h-103v177q0 44 -12.5 60t-51.5 16h-132q-18 0 -30 -3t-19 -11.5t-10 -23.5t-3 -38v-455q0 -28 10.5 -39.5t37.5 -11.5h196
q19 0 19 19v174h-129v58h224v-309h-378z" />
    <glyph glyph-name="h" unicode="h" horiz-adv-x="577" 
d="M49 0zM416 0v227h-255v-227h-112v803h112v-518h255v518h110v-803h-110z" />
    <glyph glyph-name="i" unicode="i" horiz-adv-x="216" 
d="M53 0zM53 0v803h110v-803h-110z" />
    <glyph glyph-name="j" unicode="j" horiz-adv-x="538" 
d="M37 0zM118 0q-45 0 -63 17.5t-18 64.5v226h104v-199q0 -28 11 -39.5t37 -11.5h149q26 0 37 11.5t11 39.5v694h105v-721q0 -47 -17.5 -64.5t-62.5 -17.5h-293z" />
    <glyph glyph-name="k" unicode="k" horiz-adv-x="560" 
d="M49 0zM403 0l-241 243q-4 4 -11 4h-2v-247h-100v803h100v-475h2q7 0 11 5l272 470h119l-325 -518l293 -285h-118z" />
    <glyph glyph-name="l" unicode="l" horiz-adv-x="526" 
d="M49 0zM49 0v803h104v-727q0 -18 18 -18h206q18 0 18 18v232h100v-308h-446z" />
    <glyph glyph-name="m" unicode="m" horiz-adv-x="699" 
d="M49 0zM551 0v526h-4q-7 0 -10 -9l-142 -507q-3 -10 -14 -10h-64q-11 0 -14 10l-142 507q-3 9 -10 9h-4v-526h-98v803h76q43 0 55 -45l162 -601q2 -5 7 -5t7 5l162 601q12 45 55 45h76v-803h-98z" />
    <glyph glyph-name="n" unicode="n" horiz-adv-x="614" 
d="M49 0zM473 0q-21 0 -31 6t-18 23l-252 489q-5 9 -13 9h-8v-527h-102v803h81q22 0 32.5 -8.5t18.5 -26.5l274 -626q2 -5 7 -5h2v666h100v-803h-91z" />
    <glyph glyph-name="o" unicode="o" 
d="M45 0zM125 0q-45 0 -62.5 17.5t-17.5 64.5v588q0 42 4.5 68.5t17 40.5t34 19t55.5 5h232q34 0 56 -5t34.5 -19t17 -40.5t4.5 -68.5v-588q0 -47 -17.5 -64.5t-62.5 -17.5h-295zM405 564q0 46 -13.5 61t-50.5 15h-138q-19 0 -31 -3t-19 -11.5t-10 -23.5t-3 -38v-455
q0 -28 11 -39.5t38 -11.5h167q26 0 37.5 11.5t11.5 39.5v455z" />
    <glyph glyph-name="p" unicode="p" horiz-adv-x="534" 
d="M49 0zM154 203v-203h-105v803h360q29 0 48 -5t30.5 -19.5t16 -40.5t4.5 -68v-379q0 -27 -4 -44t-14 -27t-25.5 -13.5t-38.5 -3.5h-272zM408 563q0 24 -3 39t-11.5 23.5t-23.5 11.5t-38 3h-178v-380h202q29 0 40.5 11.5t11.5 40.5v251z" />
    <glyph glyph-name="q" unicode="q" horiz-adv-x="556" 
d="M45 0zM232 -107q6 11 8 22.5t2 20.5v27q0 23 -9.5 30t-34.5 7h-73q-45 0 -62.5 17.5t-17.5 64.5v588q0 42 4.5 68.5t17 40.5t34 19t55.5 5h244q34 0 55.5 -5t34 -19t17 -40.5t4.5 -68.5v-588q0 -47 -17.5 -64.5t-62.5 -17.5h-72q-25 0 -34.5 -7t-9.5 -30v-27
q0 -9 2 -20.5t8 -22.5h-93zM416 564q0 46 -13.5 61t-49.5 15h-150q-18 0 -30.5 -3t-19.5 -11.5t-10 -23.5t-3 -38v-455q0 -28 11 -39.5t38 -11.5h179q26 0 37 11.5t11 39.5v455z" />
    <glyph glyph-name="r" unicode="r" horiz-adv-x="561" 
d="M49 0zM454 0q-33 0 -33 43v109q0 38 -16 51.5t-54 13.5h-200v-217h-102v803h363q32 0 52.5 -5t32 -19t16 -40t4.5 -69v-322q0 -27 -5 -45.5t-15 -30t-25 -17.5t-36 -8q21 -2 36 -6.5t25 -15t15 -28.5t5 -46v-112q0 -17 4.5 -25t14.5 -14h-82zM421 565q0 46 -11.5 60.5
t-45.5 14.5h-213v-365h200q38 0 54 13t16 49v228z" />
    <glyph glyph-name="s" unicode="s" horiz-adv-x="549" 
d="M38 0zM38 0v58h324q27 0 37.5 11t10.5 40v76q0 23 -9 32.5t-31 9.5h-263q-38 0 -53.5 15t-15.5 55v373q0 42 4.5 68.5t17.5 40.5t34.5 19t56.5 5h250q33 0 54 -5.5t33 -20t16 -40.5t4 -67v-290h-98v185q0 44 -12 59.5t-46 15.5h-152q-19 0 -31 -3t-19.5 -11.5t-10.5 -23
t-3 -37.5v-236q0 -24 10 -34t33 -10h266q35 0 48.5 -15.5t13.5 -55.5v-131q0 -25 -4 -41t-13 -25.5t-24 -13t-38 -3.5h-390z" />
    <glyph glyph-name="t" unicode="t" horiz-adv-x="497" 
d="M17 0zM198 0v622q0 18 -21 18h-160v163h461v-163h-160q-12 0 -16.5 -4.5t-4.5 -13.5v-622h-99z" />
    <glyph glyph-name="u" unicode="u" horiz-adv-x="555" 
d="M46 0zM127 0q-45 0 -63 17.5t-18 64.5v721h100v-694q0 -28 11.5 -39.5t37.5 -11.5h209v745h101v-803h-378z" />
    <glyph glyph-name="v" unicode="v" horiz-adv-x="556" 
d="M22 0zM192 0l-170 803h111l138 -740q1 -6 7 -6q5 0 7 6l137 740h112l-170 -803h-172z" />
    <glyph glyph-name="w" unicode="w" horiz-adv-x="705" 
d="M39 0zM456 0q-11 14 -27 42.5t-32 66t-28.5 81.5t-16.5 90q-5 -47 -17.5 -91.5t-28 -81.5t-31.5 -64.5t-26 -42.5h-100q-18 25 -37.5 67.5t-35.5 99t-26.5 125.5t-10.5 146v365h103v-351q0 -80 7.5 -141t18.5 -106.5t23.5 -77t23.5 -53.5q13 23 29.5 58.5t31.5 83.5
t25 108.5t10 133.5v345h82v-345q0 -73 10 -133.5t25 -108.5t32 -83.5t30 -58.5q10 22 22.5 53.5t24 77t19 106.5t7.5 141v351h102v-365q0 -77 -10 -146t-26 -125.5t-35.5 -99t-37.5 -67.5h-100z" />
    <glyph glyph-name="x" unicode="x" horiz-adv-x="593" 
d="M10 0zM426 0l-120 174q-3 6 -9 6q-7 0 -10 -6l-119 -174h-112l160 225l-206 578h121l157 -507q2 -7 9 -7q6 0 8 7l158 507h120l-206 -578l161 -225h-112z" />
    <glyph glyph-name="y" unicode="y" 
d="M43 0zM43 0v58h307q26 0 37 11.5t11 39.5v94h-275q-45 0 -62.5 17.5t-17.5 64.5v518h100v-491q0 -28 11 -40t38 -12h206v543h100v-721q0 -47 -17 -64.5t-62 -17.5h-376z" />
    <glyph glyph-name="z" unicode="z" horiz-adv-x="530" 
d="M31 0zM31 0v31q0 18 4 29t12 24l360 533q5 8 5 16q0 7 -8 7h-373v163h467v-152q0 -26 -6.5 -49t-20.5 -43l-337 -487q-3 -5 -3 -8q0 -6 9 -6h358v-58h-467z" />
    <glyph glyph-name="braceleft" unicode="{" horiz-adv-x="378" 
d="M192 0q-88 0 -88 92v119q0 56 -31 56h-33v46h33q31 0 31 56v341q0 93 88 93h141v-164h-93q-52 0 -52 -50v-242q0 -44 -38 -57q38 -15 38 -57v-126q0 -49 52 -49h93v-58h-141z" />
    <glyph glyph-name="bar" unicode="|" horiz-adv-x="305" 
d="M128 -66v925h49v-925h-49z" />
    <glyph glyph-name="braceright" unicode="}" horiz-adv-x="379" 
d="M45 0v58h93q51 0 51 49v126q0 42 39 57q-39 13 -39 57v242q0 23 -12 36.5t-39 13.5h-93v164h141q88 0 88 -93v-341q0 -56 31 -56h33v-46h-33q-31 0 -31 -56v-119q0 -92 -88 -92h-141z" />
    <glyph glyph-name="nonbreakingspace" unicode="&#xa0;" horiz-adv-x="213" 
 />
    <glyph glyph-name="exclamdown" unicode="&#xa1;" horiz-adv-x="232" 
d="M59 0zM173.004 803v-115.993h-113.993v115.993h113.993zM173.004 630.011v-629.962h-113.993v629.962h113.993z" />
    <glyph glyph-name="cent" unicode="&#xa2;" horiz-adv-x="515" 
d="M269 97v-97h-21v97h-127q-43 0 -59.5 13.5t-16.5 48.5v452q0 32 4.5 52t16 31t32 15t53.5 4h97v90h21v-90h96q32 0 52.5 -4t32 -15t16 -31t4.5 -52v-315h-79v241q0 34 -11.5 46t-46.5 12h-64v-453h81q23 0 32 8t9 27v40h79v-60q0 -35 -16 -47.5t-59 -12.5h-126zM248 595
h-64q-35 0 -47.5 -11.5t-12.5 -46.5v-357q0 -20 10.5 -29t35.5 -9h78v453z" />
    <glyph glyph-name="sterling" unicode="&#xa3;" horiz-adv-x="557" 
d="M429 1q-30 0 -53 2.5t-43 8.5t-38.5 15.5t-38.5 24.5q-17 -25 -44.5 -38.5t-58.5 -13.5h-37q-35 0 -56.5 15.5t-21.5 56.5v25q0 42 22 61t70 19q38 0 80 -32q-2 36 -19 66t-39 59h-83v36h56q-23 30 -39 63.5t-16 76.5v224q0 74 20.5 103.5t55.5 29.5h285q41 0 60.5 -29.5
t19.5 -103.5v-291h-84v186q0 39 -10.5 57t-33.5 18h-183q-21 0 -33 -16.5t-12 -58.5v-140q0 -33 13 -62t31 -57h308v-36h-283q21 -32 38 -66.5t17 -75.5q0 -11 -1.5 -20t-3.5 -18q11 -8 23.5 -13t30 -8t41.5 -4.5t57 -1.5v140h84v-202h-81zM79 74q0 -21 13 -29.5t34 -8.5
q16 0 29 1.5t23.5 7.5t18 17.5t10.5 31.5q-16 16 -33 28.5t-44 12.5q-28 0 -39.5 -10.5t-11.5 -34.5v-16z" />
    <glyph glyph-name="yen" unicode="&#xa5;" horiz-adv-x="566" 
d="M335 140l11 -140h-126l10 140h-207v51h203l-14 113h-189v51h172l-188 448h116l154 -399q2 -5 6 -5t6 5l154 399h115l-187 -448h180v-51h-197l-15 -113h212v-51h-216z" />
    <glyph glyph-name="brokenbar" unicode="&#xa6;" horiz-adv-x="305" 
d="M177 444h-49v415h49v-415zM128 -66v366h49v-366h-49z" />
    <glyph glyph-name="dieresis" unicode="&#xa8;" horiz-adv-x="325" 
d="M45 865v122h54v-122h-54zM225 865v122h54v-122h-54z" />
    <glyph glyph-name="ordfeminine" unicode="&#xaa;" horiz-adv-x="354" 
d="M255 300l-12 102h-134l-10 -102h-57l42 415q3 27 24 27h141q19 0 22 -27l41 -415h-57zM218 642q-1 13 -10 13h-64q-9 0 -10 -13l-22 -203q0 -5 5 -5h119q4 0 4 5z" />
    <glyph glyph-name="guillemotleft" unicode="&#xab;" horiz-adv-x="415" 
d="M39 231v43l148 103v-43l-120 -81l120 -82v-43zM216 231v43l148 103v-43l-120 -81l120 -82v-43z" />
    <glyph glyph-name="macron" unicode="&#xaf;" horiz-adv-x="297" 
d="M45 908v40h207v-40h-207z" />
    <glyph glyph-name="degree" unicode="&#xb0;" horiz-adv-x="270" 
d="M136 598q-91 0 -91 109q0 107 91 107q89 0 89 -107q0 -109 -89 -109zM136 622q65 0 65 85q0 82 -65 82q-67 0 -67 -82q0 -85 67 -85z" />
    <glyph glyph-name="plusminus" unicode="&#xb1;" horiz-adv-x="563" 
d="M45 45zM262 138v217h-217v39h217v217h39v-217h217v-39h-217v-217h-39zM45 45v39h473v-39h-473z" />
    <glyph glyph-name="twosuperior" unicode="&#xb2;" horiz-adv-x="306" 
d="M36 409zM37 409v54q0 24 9 37t29 21l115 41q15 5 21 15.5t6 24.5v89q0 23 -6 30.5t-26 7.5h-70q-17 0 -23 -7.5t-6 -30.5v-104h-50v157q0 42 10.5 54t43.5 12h122q35 0 46 -12.5t11 -53.5v-147q0 -17 -8 -31.5t-29 -22.5l-122 -46q-25 -9 -25 -36v-23h185v-29h-233z" />
    <glyph glyph-name="threesuperior" unicode="&#xb3;" horiz-adv-x="304" 
d="M37 409zM77 409q-23 0 -31.5 9t-8.5 32v51h48v-38q0 -25 24 -25h86q22 0 22 27v28q0 18 -8 25t-27 7h-58v28h58q18 0 26.5 7t8.5 25v109q0 21 -5.5 28t-22.5 7h-72q-18 0 -25 -7.5t-7 -30.5v-103h-48v156q0 21 2.5 34t8.5 20t17 9.5t28 2.5h122q16 0 26 -2t16 -9t8 -19
t2 -32v-159q0 -26 -9.5 -37t-29.5 -13q20 -2 29.5 -11.5t9.5 -36.5v-36q0 -24 -8 -35t-28 -11h-154z" />
    <glyph glyph-name="acute" unicode="&#xb4;" horiz-adv-x="302" 
d="M45 855v42l211 88v-42z" />
    <glyph glyph-name="paragraph" unicode="&#xb6;" horiz-adv-x="442" 
d="M356 -188v950h-114v-950h-40v496h-45q-122 0 -122 172v151q0 172 122 172h240v-991h-41z" />
    <glyph glyph-name="periodcentered" unicode="&#xb7;" horiz-adv-x="169" 
d="M45 300v134h78v-134h-78z" />
    <glyph glyph-name="cedilla" unicode="&#xb8;" horiz-adv-x="162" 
d="M45 -189v26h18q12 0 12 14v36h-19v65h60v-90q0 -8 -1 -17t-5 -16.5t-12 -12.5t-21 -5h-32z" />
    <glyph glyph-name="onesuperior" unicode="&#xb9;" horiz-adv-x="191" 
d="M18 409zM97 409v340q0 3 -3 3q-2 0 -3 -3l-45 -95l-28 15l69 141h67v-401h-57z" />
    <glyph glyph-name="ordmasculine" unicode="&#xba;" horiz-adv-x="360" 
d="M99 300q-25 0 -34.5 9.5t-9.5 35.5v324q0 23 2.5 37.5t9 22.5t18.5 10.5t31 2.5h127q19 0 31 -2.5t19 -10.5t9.5 -22.5t2.5 -37.5v-324q0 -26 -10 -35.5t-34 -9.5h-162zM253 610q0 26 -7.5 34t-27.5 8h-76q-21 0 -28 -8t-7 -34v-250q0 -15 6 -21.5t21 -6.5h92q27 0 27 28
v250z" />
    <glyph glyph-name="guillemotright" unicode="&#xbb;" horiz-adv-x="415" 
d="M222 128v43l120 82l-120 81v43l148 -103v-43zM45 128v43l120 82l-120 81v43l148 -103v-43z" />
    <glyph glyph-name="onequarter" unicode="&#xbc;" horiz-adv-x="723" 
d="M45 0zM135 409v340q0 3 -3 3q-2 0 -3 -3l-45 -95l-28 15l69 141h67v-401h-57zM45 -38l501 878h47l-499 -878h-49zM586 -10v63h-182v44l155 294h79v-304h39v-34h-39v-63h-52zM586 300q0 4 -3 4t-4 -3l-120 -207q-2 -4 -2 -7h129v213z" />
    <glyph glyph-name="onehalf" unicode="&#xbd;" horiz-adv-x="714" 
d="M45 0zM135 409v340q0 3 -3 3q-2 0 -3 -3l-45 -95l-28 15l69 141h67v-401h-57zM45 -38l501 878h47l-499 -878h-49zM435 -10v54q0 24 9 37t29 21l115 41q15 5 21 15.5t6 24.5v89q0 23 -6 30.5t-26 7.5h-70q-17 0 -23 -7.5t-6 -30.5v-104h-50v157q0 42 10.5 54t43.5 12h122
q35 0 46 -12.5t11 -53.5v-147q0 -17 -8 -31.5t-29 -22.5l-122 -46q-25 -9 -25 -36v-23h185v-29h-233z" />
    <glyph glyph-name="threequarters" unicode="&#xbe;" horiz-adv-x="746" 
d="M45 0zM85 409q-23 0 -31.5 9t-8.5 32v51h48v-38q0 -25 24 -25h86q22 0 22 27v28q0 18 -8 25t-27 7h-58v28h58q18 0 26.5 7t8.5 25v109q0 21 -5.5 28t-22.5 7h-72q-18 0 -25 -7.5t-7 -30.5v-103h-48v156q0 21 2.5 34t8.5 20t17 9.5t28 2.5h122q16 0 26 -2t16 -9t8 -19
t2 -32v-159q0 -26 -9.5 -37t-29.5 -13q20 -2 29.5 -11.5t9.5 -36.5v-36q0 -24 -8 -35t-28 -11h-154zM98 -38l501 878h47l-499 -878h-49zM609 -10v63h-182v44l155 294h79v-304h39v-34h-39v-63h-52zM609 300q0 4 -3 4t-4 -3l-120 -207q-2 -4 -2 -7h129v213z" />
    <glyph glyph-name="questiondown" unicode="&#xbf;" horiz-adv-x="539" 
d="M38 0zM347.012 645.01v-44.9971q0 -15.999 -3 -28.499q-2.99902 -12.499 -10.499 -22.998q-7.49902 -10.499 -20.999 -20.999q-13.499 -10.499 -34.498 -24.498l-92.9941 -56.9971q-20.998 -12.999 -30.498 -30.998q-9.49902 -17.999 -9.49902 -52.9961v-121.993
q0 -45.9971 8.49902 -61.4961q8.5 -15.499 36.498 -15.499h165.99q25.998 0 36.4971 14.999q10.5 14.999 10.5 60.9961v176.989h100.993v-282.982q0 -42.9971 -3.99902 -68.9961q-4 -25.998 -13 -39.9971q-8.99902 -13.999 -23.998 -18.999t-37.998 -5h-307.98
q-23.999 0 -38.998 5t-23.999 18.999q-8.99902 13.999 -12.499 40.4971q-3.49902 26.498 -3.49902 68.4961v219.986q0 24.999 2.99902 42.9971q3 17.999 10 32.498q6.99902 14.499 19.998 26.999q13 12.499 31.998 24.498l119.993 74.9961q13.999 8.99902 19.999 17.498
q5.99902 8.5 5.99902 27.499v44.9971h97.9941zM347.012 803v-115.993h-98.9941v115.993h98.9941z" />
    <glyph glyph-name="Agrave" unicode="&#xc0;" horiz-adv-x="535" 
d="M22 0zM409 0l-21 185h-244l-19 -185h-103l77 754q5 49 42 49h258q19 0 28 -13t11 -36l75 -754h-104zM342 622q-3 24 -19 24h-116q-15 0 -18 -24l-40 -370q0 -8 9 -8h216q8 0 8 8zM132 943v42l211 -88v-42z" />
    <glyph glyph-name="Aacute" unicode="&#xc1;" horiz-adv-x="535" 
d="M22 0zM409 0l-21 185h-244l-19 -185h-103l77 754q5 49 42 49h258q19 0 28 -13t11 -36l75 -754h-104zM342 622q-3 24 -19 24h-116q-15 0 -18 -24l-40 -370q0 -8 9 -8h216q8 0 8 8zM192 855v42l211 88v-42z" />
    <glyph glyph-name="Acircumflex" unicode="&#xc2;" horiz-adv-x="535" 
d="M22 0zM409 0l-21 185h-244l-19 -185h-103l77 754q5 49 42 49h258q19 0 28 -13t11 -36l75 -754h-104zM342 622q-3 24 -19 24h-116q-15 0 -18 -24l-40 -370q0 -8 9 -8h216q8 0 8 8zM350 855l-82 106l-81 -106h-56l115 141h43l114 -141h-53z" />
    <glyph glyph-name="Atilde" unicode="&#xc3;" horiz-adv-x="535" 
d="M22 0zM409 0l-21 185h-244l-19 -185h-103l77 754q5 49 42 49h258q19 0 28 -13t11 -36l75 -754h-104zM342 622q-3 24 -19 24h-116q-15 0 -18 -24l-40 -370q0 -8 9 -8h216q8 0 8 8zM381 923q-8 -13 -21.5 -22.5t-39.5 -9.5q-17 0 -30.5 6.5t-25.5 15t-23.5 15t-25.5 6.5
q-17 0 -32 -10.5t-29 -29.5v47q8 13 22.5 23t39.5 10q17 0 30 -6.5t24.5 -15t23.5 -15t26 -6.5q23 0 36.5 11t24.5 28v-47z" />
    <glyph glyph-name="Adieresis" unicode="&#xc4;" horiz-adv-x="535" 
d="M22 0zM409 0l-21 185h-244l-19 -185h-103l77 754q5 49 42 49h258q19 0 28 -13t11 -36l75 -754h-104zM342 622q-3 24 -19 24h-116q-15 0 -18 -24l-40 -370q0 -8 9 -8h216q8 0 8 8zM150 865v122h54v-122h-54zM330 865v122h54v-122h-54z" />
    <glyph glyph-name="Aring" unicode="&#xc5;" horiz-adv-x="535" 
d="M22 0zM409 0l-21 185h-244l-19 -185h-103l77 754q5 49 42 49h258q19 0 28 -13t11 -36l75 -754h-104zM342 622q-3 24 -19 24h-116q-15 0 -18 -24l-40 -370q0 -8 9 -8h216q8 0 8 8zM267 827q-48 0 -66 19.5t-18 66.5q0 46 18 64.5t66 18.5t66 -18.5t18 -64.5
q0 -47 -18 -66.5t-66 -19.5zM267 852q30 0 43.5 14.5t13.5 46.5q0 31 -13.5 44.5t-43.5 13.5q-31 0 -44 -13.5t-13 -44.5q0 -32 13 -46.5t44 -14.5z" />
    <glyph glyph-name="AE" unicode="&#xc6;" horiz-adv-x="765" 
d="M422 0q-45 0 -63 17.5t-18 64.5v103h-197l-19 -185h-103l77 754q5 49 42 49h584v-163h-269q-18 0 -18 -17v-323q0 -15 15 -15h267v-58h-267q-15 0 -15 -18v-100q0 -28 11 -39.5t38 -11.5h238v-58h-303zM341 646h-134q-15 0 -18 -24l-40 -370q0 -8 9 -8h183v402z" />
    <glyph glyph-name="Ccedilla" unicode="&#xc7;" horiz-adv-x="549" 
d="M45 0zM125 0q-45 0 -62.5 17.5t-17.5 64.5v588q0 42 4.5 68.5t17 40.5t34 19t55.5 5h238q34 0 56 -5t34.5 -19t17 -40.5t4.5 -68.5v-459h-103v353q0 46 -13.5 61t-50.5 15h-132q-18 0 -30 -3t-19 -11.5t-10 -23.5t-3 -38v-455q0 -28 11 -39.5t37 -11.5h310v-58h-378z
M244 -189v26h18q12 0 12 14v36h-19v65h60v-90q0 -8 -1 -17t-5 -16.5t-12 -12.5t-21 -5h-32z" />
    <glyph glyph-name="Egrave" unicode="&#xc8;" horiz-adv-x="517" 
d="M45 0zM125 0q-45 0 -62.5 17.5t-17.5 64.5v588q0 42 4.5 68.5t17 40.5t34 19t55.5 5h321v-163h-268q-18 0 -30 -3t-19 -11.5t-10 -23.5t-3 -38v-264q0 -15 15 -15h310v-58h-310q-15 0 -15 -18v-100q0 -28 11 -39.5t37 -11.5h282v-58h-352zM145 943v42l211 -88v-42z" />
    <glyph glyph-name="Eacute" unicode="&#xc9;" horiz-adv-x="517" 
d="M45 0zM125 0q-45 0 -62.5 17.5t-17.5 64.5v588q0 42 4.5 68.5t17 40.5t34 19t55.5 5h321v-163h-268q-18 0 -30 -3t-19 -11.5t-10 -23.5t-3 -38v-264q0 -15 15 -15h310v-58h-310q-15 0 -15 -18v-100q0 -28 11 -39.5t37 -11.5h282v-58h-352zM200 855v42l211 88v-42z" />
    <glyph glyph-name="Ecircumflex" unicode="&#xca;" horiz-adv-x="517" 
d="M45 0zM125 0q-45 0 -62.5 17.5t-17.5 64.5v588q0 42 4.5 68.5t17 40.5t34 19t55.5 5h321v-163h-268q-18 0 -30 -3t-19 -11.5t-10 -23.5t-3 -38v-264q0 -15 15 -15h310v-58h-310q-15 0 -15 -18v-100q0 -28 11 -39.5t37 -11.5h282v-58h-352zM363 855l-82 106l-81 -106h-56
l115 141h43l114 -141h-53z" />
    <glyph glyph-name="Edieresis" unicode="&#xcb;" horiz-adv-x="517" 
d="M45 0zM125 0q-45 0 -62.5 17.5t-17.5 64.5v588q0 42 4.5 68.5t17 40.5t34 19t55.5 5h321v-163h-268q-18 0 -30 -3t-19 -11.5t-10 -23.5t-3 -38v-264q0 -15 15 -15h310v-58h-310q-15 0 -15 -18v-100q0 -28 11 -39.5t37 -11.5h282v-58h-352zM158 865v122h54v-122h-54z
M338 865v122h54v-122h-54z" />
    <glyph glyph-name="Igrave" unicode="&#xcc;" horiz-adv-x="216" 
d="M0 0zM53 0v803h110v-803h-110zM-26 943v42l211 -88v-42z" />
    <glyph glyph-name="Iacute" unicode="&#xcd;" horiz-adv-x="216" 
d="M34 0zM53 0v803h110v-803h-110zM34 855v42l211 88v-42z" />
    <glyph glyph-name="Icircumflex" unicode="&#xce;" horiz-adv-x="216" 
d="M0 0zM53 0v803h110v-803h-110zM192 855l-82 106l-81 -106h-56l115 141h43l114 -141h-53z" />
    <glyph glyph-name="Idieresis" unicode="&#xcf;" horiz-adv-x="216" 
d="M0 0zM53 0v803h110v-803h-110zM-8 865v122h54v-122h-54zM172 865v122h54v-122h-54z" />
    <glyph glyph-name="Eth" unicode="&#xd0;" horiz-adv-x="539" 
d="M38 0v227h-31v58h31v518h344q34 0 55.5 -5t34 -19t17 -40.5t4.5 -68.5v-588q0 -47 -17.5 -64.5t-62.5 -17.5h-375zM398 564q0 23 -3 38t-10 23.5t-19.5 11.5t-30.5 3h-202v-355h147v-58h-147v-169h216q27 0 38 11.5t11 39.5v455z" />
    <glyph glyph-name="Ntilde" unicode="&#xd1;" horiz-adv-x="614" 
d="M49 0zM473 0q-21 0 -31 6t-18 23l-252 489q-5 9 -13 9h-8v-527h-102v803h81q22 0 32.5 -8.5t18.5 -26.5l274 -626q2 -5 7 -5h2v666h100v-803h-91zM420 923q-8 -13 -21.5 -22.5t-39.5 -9.5q-17 0 -30.5 6.5t-25.5 15t-23.5 15t-25.5 6.5q-17 0 -32 -10.5t-29 -29.5v47
q8 13 22.5 23t39.5 10q17 0 30 -6.5t24.5 -15t23.5 -15t26 -6.5q23 0 36.5 11t24.5 28v-47z" />
    <glyph glyph-name="Ograve" unicode="&#xd2;" 
d="M45 0zM125 0q-45 0 -62.5 17.5t-17.5 64.5v588q0 42 4.5 68.5t17 40.5t34 19t55.5 5h232q34 0 56 -5t34.5 -19t17 -40.5t4.5 -68.5v-588q0 -47 -17.5 -64.5t-62.5 -17.5h-295zM405 564q0 46 -13.5 61t-50.5 15h-138q-19 0 -31 -3t-19 -11.5t-10 -23.5t-3 -38v-455
q0 -28 11 -39.5t38 -11.5h167q26 0 37.5 11.5t11.5 39.5v455zM137 943v42l211 -88v-42z" />
    <glyph glyph-name="Oacute" unicode="&#xd3;" 
d="M45 0zM125 0q-45 0 -62.5 17.5t-17.5 64.5v588q0 42 4.5 68.5t17 40.5t34 19t55.5 5h232q34 0 56 -5t34.5 -19t17 -40.5t4.5 -68.5v-588q0 -47 -17.5 -64.5t-62.5 -17.5h-295zM405 564q0 46 -13.5 61t-50.5 15h-138q-19 0 -31 -3t-19 -11.5t-10 -23.5t-3 -38v-455
q0 -28 11 -39.5t38 -11.5h167q26 0 37.5 11.5t11.5 39.5v455zM197 855v42l211 88v-42z" />
    <glyph glyph-name="Ocircumflex" unicode="&#xd4;" 
d="M45 0zM125 0q-45 0 -62.5 17.5t-17.5 64.5v588q0 42 4.5 68.5t17 40.5t34 19t55.5 5h232q34 0 56 -5t34.5 -19t17 -40.5t4.5 -68.5v-588q0 -47 -17.5 -64.5t-62.5 -17.5h-295zM405 564q0 46 -13.5 61t-50.5 15h-138q-19 0 -31 -3t-19 -11.5t-10 -23.5t-3 -38v-455
q0 -28 11 -39.5t38 -11.5h167q26 0 37.5 11.5t11.5 39.5v455zM356 855l-82 106l-81 -106h-56l115 141h43l114 -141h-53z" />
    <glyph glyph-name="Otilde" unicode="&#xd5;" 
d="M45 0zM125 0q-45 0 -62.5 17.5t-17.5 64.5v588q0 42 4.5 68.5t17 40.5t34 19t55.5 5h232q34 0 56 -5t34.5 -19t17 -40.5t4.5 -68.5v-588q0 -47 -17.5 -64.5t-62.5 -17.5h-295zM405 564q0 46 -13.5 61t-50.5 15h-138q-19 0 -31 -3t-19 -11.5t-10 -23.5t-3 -38v-455
q0 -28 11 -39.5t38 -11.5h167q26 0 37.5 11.5t11.5 39.5v455zM386 923q-8 -13 -21.5 -22.5t-39.5 -9.5q-17 0 -30.5 6.5t-25.5 15t-23.5 15t-25.5 6.5q-17 0 -32 -10.5t-29 -29.5v47q8 13 22.5 23t39.5 10q17 0 30 -6.5t24.5 -15t23.5 -15t26 -6.5q23 0 36.5 11t24.5 28v-47
z" />
    <glyph glyph-name="Odieresis" unicode="&#xd6;" 
d="M45 0zM125 0q-45 0 -62.5 17.5t-17.5 64.5v588q0 42 4.5 68.5t17 40.5t34 19t55.5 5h232q34 0 56 -5t34.5 -19t17 -40.5t4.5 -68.5v-588q0 -47 -17.5 -64.5t-62.5 -17.5h-295zM405 564q0 46 -13.5 61t-50.5 15h-138q-19 0 -31 -3t-19 -11.5t-10 -23.5t-3 -38v-455
q0 -28 11 -39.5t38 -11.5h167q26 0 37.5 11.5t11.5 39.5v455zM156 865v122h54v-122h-54zM336 865v122h54v-122h-54z" />
    <glyph glyph-name="multiply" unicode="&#xd7;" horiz-adv-x="563" 
d="M434 194l-153 153l-153 -153l-28 27l153 154l-153 153l28 28l153 -154l153 154l28 -28l-153 -153l153 -154z" />
    <glyph glyph-name="Oslash" unicode="&#xd8;" 
d="M184 0l-17 -66h-27l16 66h-31q-45 0 -62.5 17.5t-17.5 64.5v588q0 42 4.5 68.5t17 40.5t34 19t55.5 5h197l19 75h40l-20 -75q33 0 54 -5.5t33 -20t16.5 -40t4.5 -67.5v-588q0 -47 -17.5 -64.5t-62.5 -17.5h-236zM405 564q0 43 -12 58.5t-43 17.5l-151 -582h157
q26 0 37.5 11.5t11.5 39.5v455zM313 640h-110q-19 0 -31 -3t-19 -11.5t-10 -23.5t-3 -38v-455q0 -23 6.5 -34.5t23.5 -15.5z" />
    <glyph glyph-name="Ugrave" unicode="&#xd9;" horiz-adv-x="555" 
d="M46 0zM127 0q-45 0 -63 17.5t-18 64.5v721h100v-694q0 -28 11.5 -39.5t37.5 -11.5h209v745h101v-803h-378zM142 943v42l211 -88v-42z" />
    <glyph glyph-name="Uacute" unicode="&#xda;" horiz-adv-x="555" 
d="M46 0zM127 0q-45 0 -63 17.5t-18 64.5v721h100v-694q0 -28 11.5 -39.5t37.5 -11.5h209v745h101v-803h-378zM202 855v42l211 88v-42z" />
    <glyph glyph-name="Ucircumflex" unicode="&#xdb;" horiz-adv-x="555" 
d="M46 0zM127 0q-45 0 -63 17.5t-18 64.5v721h100v-694q0 -28 11.5 -39.5t37.5 -11.5h209v745h101v-803h-378zM360 855l-82 106l-81 -106h-56l115 141h43l114 -141h-53z" />
    <glyph glyph-name="Udieresis" unicode="&#xdc;" horiz-adv-x="555" 
d="M46 0zM127 0q-45 0 -63 17.5t-18 64.5v721h100v-694q0 -28 11.5 -39.5t37.5 -11.5h209v745h101v-803h-378zM160 865v122h54v-122h-54zM340 865v122h54v-122h-54z" />
    <glyph glyph-name="Yacute" unicode="&#xdd;" 
d="M43 0zM43 0v58h307q26 0 37 11.5t11 39.5v94h-275q-45 0 -62.5 17.5t-17.5 64.5v518h100v-491q0 -28 11 -40t38 -12h206v543h100v-721q0 -47 -17 -64.5t-62 -17.5h-376zM197 855v42l211 88v-42z" />
    <glyph glyph-name="Thorn" unicode="&#xde;" horiz-adv-x="542" 
d="M408 501q0 50 -14 67t-50 17h-190v-415h196q31 0 44.5 13.5t13.5 54.5v263zM154 113v-114h-105v804h106v-90h254q29 0 48 -5t30.5 -19.5t16 -40.5t4.5 -68v-362q0 -33 -4 -54t-14 -32t-25.5 -15t-38.5 -4h-272z" />
    <glyph glyph-name="germandbls" unicode="&#xdf;" horiz-adv-x="1098" 
d="M38 0zM38 0v58h324q27 0 37.5 11t10.5 40v76q0 23 -9 32.5t-31 9.5h-263q-38 0 -53.5 15t-15.5 55v373q0 42 4.5 68.5t17.5 40.5t34.5 19t56.5 5h250q33 0 54 -5.5t33 -20t16 -40.5t4 -67v-290h-98v185q0 44 -12 59.5t-46 15.5h-152q-19 0 -31 -3t-19.5 -11.5t-10.5 -23
t-3 -37.5v-236q0 -24 10 -34t33 -10h266q35 0 48.5 -15.5t13.5 -55.5v-131q0 -25 -4 -41t-13 -25.5t-24 -13t-38 -3.5h-390zM587 0v58h324q27 0 37.5 11t10.5 40v76q0 23 -9 32.5t-31 9.5h-263q-38 0 -53.5 15t-15.5 55v373q0 42 4.5 68.5t17.5 40.5t34.5 19t56.5 5h250
q33 0 54 -5.5t33 -20t16 -40.5t4 -67v-290h-98v185q0 44 -12 59.5t-46 15.5h-152q-19 0 -31 -3t-19.5 -11.5t-10.5 -23t-3 -37.5v-236q0 -24 10 -34t33 -10h266q35 0 48.5 -15.5t13.5 -55.5v-131q0 -25 -4 -41t-13 -25.5t-24 -13t-38 -3.5h-390z" />
    <glyph glyph-name="agrave" unicode="&#xe0;" horiz-adv-x="535" 
d="M22 0zM409 0l-21 185h-244l-19 -185h-103l77 754q5 49 42 49h258q19 0 28 -13t11 -36l75 -754h-104zM342 622q-3 24 -19 24h-116q-15 0 -18 -24l-40 -370q0 -8 9 -8h216q8 0 8 8zM132 943v42l211 -88v-42z" />
    <glyph glyph-name="aacute" unicode="&#xe1;" horiz-adv-x="535" 
d="M22 0zM409 0l-21 185h-244l-19 -185h-103l77 754q5 49 42 49h258q19 0 28 -13t11 -36l75 -754h-104zM342 622q-3 24 -19 24h-116q-15 0 -18 -24l-40 -370q0 -8 9 -8h216q8 0 8 8zM192 855v42l211 88v-42z" />
    <glyph glyph-name="acircumflex" unicode="&#xe2;" horiz-adv-x="535" 
d="M22 0zM409 0l-21 185h-244l-19 -185h-103l77 754q5 49 42 49h258q19 0 28 -13t11 -36l75 -754h-104zM342 622q-3 24 -19 24h-116q-15 0 -18 -24l-40 -370q0 -8 9 -8h216q8 0 8 8zM350 855l-82 106l-81 -106h-56l115 141h43l114 -141h-53z" />
    <glyph glyph-name="atilde" unicode="&#xe3;" horiz-adv-x="535" 
d="M22 0zM409 0l-21 185h-244l-19 -185h-103l77 754q5 49 42 49h258q19 0 28 -13t11 -36l75 -754h-104zM342 622q-3 24 -19 24h-116q-15 0 -18 -24l-40 -370q0 -8 9 -8h216q8 0 8 8zM381 923q-8 -13 -21.5 -22.5t-39.5 -9.5q-17 0 -30.5 6.5t-25.5 15t-23.5 15t-25.5 6.5
q-17 0 -32 -10.5t-29 -29.5v47q8 13 22.5 23t39.5 10q17 0 30 -6.5t24.5 -15t23.5 -15t26 -6.5q23 0 36.5 11t24.5 28v-47z" />
    <glyph glyph-name="adieresis" unicode="&#xe4;" horiz-adv-x="535" 
d="M22 0zM409 0l-21 185h-244l-19 -185h-103l77 754q5 49 42 49h258q19 0 28 -13t11 -36l75 -754h-104zM342 622q-3 24 -19 24h-116q-15 0 -18 -24l-40 -370q0 -8 9 -8h216q8 0 8 8zM150 865v122h54v-122h-54zM330 865v122h54v-122h-54z" />
    <glyph glyph-name="aring" unicode="&#xe5;" horiz-adv-x="535" 
d="M22 0zM409 0l-21 185h-244l-19 -185h-103l77 754q5 49 42 49h258q19 0 28 -13t11 -36l75 -754h-104zM342 622q-3 24 -19 24h-116q-15 0 -18 -24l-40 -370q0 -8 9 -8h216q8 0 8 8zM267 827q-48 0 -66 19.5t-18 66.5q0 46 18 64.5t66 18.5t66 -18.5t18 -64.5
q0 -47 -18 -66.5t-66 -19.5zM267 852q30 0 43.5 14.5t13.5 46.5q0 31 -13.5 44.5t-43.5 13.5q-31 0 -44 -13.5t-13 -44.5q0 -32 13 -46.5t44 -14.5z" />
    <glyph glyph-name="ae" unicode="&#xe6;" horiz-adv-x="765" 
d="M22 0zM422 0q-45 0 -63 17.5t-18 64.5v103h-197l-19 -185h-103l77 754q5 49 42 49h584v-163h-269q-18 0 -18 -17v-323q0 -15 15 -15h267v-58h-267q-15 0 -15 -18v-100q0 -28 11 -39.5t38 -11.5h238v-58h-303zM341 646h-134q-15 0 -18 -24l-40 -370q0 -8 9 -8h183v402z
" />
    <glyph glyph-name="ccedilla" unicode="&#xe7;" horiz-adv-x="549" 
d="M45 0zM125 0q-45 0 -62.5 17.5t-17.5 64.5v588q0 42 4.5 68.5t17 40.5t34 19t55.5 5h238q34 0 56 -5t34.5 -19t17 -40.5t4.5 -68.5v-459h-103v353q0 46 -13.5 61t-50.5 15h-132q-18 0 -30 -3t-19 -11.5t-10 -23.5t-3 -38v-455q0 -28 11 -39.5t37 -11.5h310v-58h-378z
M244 -189v26h18q12 0 12 14v36h-19v65h60v-90q0 -8 -1 -17t-5 -16.5t-12 -12.5t-21 -5h-32z" />
    <glyph glyph-name="egrave" unicode="&#xe8;" horiz-adv-x="517" 
d="M45 0zM125 0q-45 0 -62.5 17.5t-17.5 64.5v588q0 42 4.5 68.5t17 40.5t34 19t55.5 5h321v-163h-268q-18 0 -30 -3t-19 -11.5t-10 -23.5t-3 -38v-264q0 -15 15 -15h310v-58h-310q-15 0 -15 -18v-100q0 -28 11 -39.5t37 -11.5h282v-58h-352zM145 943v42l211 -88v-42z" />
    <glyph glyph-name="eacute" unicode="&#xe9;" horiz-adv-x="517" 
d="M45 0zM125 0q-45 0 -62.5 17.5t-17.5 64.5v588q0 42 4.5 68.5t17 40.5t34 19t55.5 5h321v-163h-268q-18 0 -30 -3t-19 -11.5t-10 -23.5t-3 -38v-264q0 -15 15 -15h310v-58h-310q-15 0 -15 -18v-100q0 -28 11 -39.5t37 -11.5h282v-58h-352zM200 855v42l211 88v-42z" />
    <glyph glyph-name="ecircumflex" unicode="&#xea;" horiz-adv-x="517" 
d="M45 0zM125 0q-45 0 -62.5 17.5t-17.5 64.5v588q0 42 4.5 68.5t17 40.5t34 19t55.5 5h321v-163h-268q-18 0 -30 -3t-19 -11.5t-10 -23.5t-3 -38v-264q0 -15 15 -15h310v-58h-310q-15 0 -15 -18v-100q0 -28 11 -39.5t37 -11.5h282v-58h-352zM363 855l-82 106l-81 -106h-56
l115 141h43l114 -141h-53z" />
    <glyph glyph-name="edieresis" unicode="&#xeb;" horiz-adv-x="517" 
d="M45 0zM125 0q-45 0 -62.5 17.5t-17.5 64.5v588q0 42 4.5 68.5t17 40.5t34 19t55.5 5h321v-163h-268q-18 0 -30 -3t-19 -11.5t-10 -23.5t-3 -38v-264q0 -15 15 -15h310v-58h-310q-15 0 -15 -18v-100q0 -28 11 -39.5t37 -11.5h282v-58h-352zM158 865v122h54v-122h-54z
M338 865v122h54v-122h-54z" />
    <glyph glyph-name="igrave" unicode="&#xec;" horiz-adv-x="216" 
d="M0 0zM53 0v803h110v-803h-110zM-26 943v42l211 -88v-42z" />
    <glyph glyph-name="iacute" unicode="&#xed;" horiz-adv-x="216" 
d="M34 0zM53 0v803h110v-803h-110zM34 855v42l211 88v-42z" />
    <glyph glyph-name="icircumflex" unicode="&#xee;" horiz-adv-x="216" 
d="M0 0zM53 0v803h110v-803h-110zM192 855l-82 106l-81 -106h-56l115 141h43l114 -141h-53z" />
    <glyph glyph-name="idieresis" unicode="&#xef;" horiz-adv-x="216" 
d="M0 0zM53 0v803h110v-803h-110zM-8 865v122h54v-122h-54zM172 865v122h54v-122h-54z" />
    <glyph glyph-name="eth" unicode="&#xf0;" horiz-adv-x="539" 
d="M7 0zM38 0v227h-31v58h31v518h344q34 0 55.5 -5t34 -19t17 -40.5t4.5 -68.5v-588q0 -47 -17.5 -64.5t-62.5 -17.5h-375zM398 564q0 23 -3 38t-10 23.5t-19.5 11.5t-30.5 3h-202v-355h147v-58h-147v-169h216q27 0 38 11.5t11 39.5v455z" />
    <glyph glyph-name="ntilde" unicode="&#xf1;" horiz-adv-x="614" 
d="M49 0zM473 0q-21 0 -31 6t-18 23l-252 489q-5 9 -13 9h-8v-527h-102v803h81q22 0 32.5 -8.5t18.5 -26.5l274 -626q2 -5 7 -5h2v666h100v-803h-91zM420 923q-8 -13 -21.5 -22.5t-39.5 -9.5q-17 0 -30.5 6.5t-25.5 15t-23.5 15t-25.5 6.5q-17 0 -32 -10.5t-29 -29.5v47
q8 13 22.5 23t39.5 10q17 0 30 -6.5t24.5 -15t23.5 -15t26 -6.5q23 0 36.5 11t24.5 28v-47z" />
    <glyph glyph-name="ograve" unicode="&#xf2;" 
d="M45 0zM125 0q-45 0 -62.5 17.5t-17.5 64.5v588q0 42 4.5 68.5t17 40.5t34 19t55.5 5h232q34 0 56 -5t34.5 -19t17 -40.5t4.5 -68.5v-588q0 -47 -17.5 -64.5t-62.5 -17.5h-295zM405 564q0 46 -13.5 61t-50.5 15h-138q-19 0 -31 -3t-19 -11.5t-10 -23.5t-3 -38v-455
q0 -28 11 -39.5t38 -11.5h167q26 0 37.5 11.5t11.5 39.5v455zM137 943v42l211 -88v-42z" />
    <glyph glyph-name="oacute" unicode="&#xf3;" 
d="M45 0zM125 0q-45 0 -62.5 17.5t-17.5 64.5v588q0 42 4.5 68.5t17 40.5t34 19t55.5 5h232q34 0 56 -5t34.5 -19t17 -40.5t4.5 -68.5v-588q0 -47 -17.5 -64.5t-62.5 -17.5h-295zM405 564q0 46 -13.5 61t-50.5 15h-138q-19 0 -31 -3t-19 -11.5t-10 -23.5t-3 -38v-455
q0 -28 11 -39.5t38 -11.5h167q26 0 37.5 11.5t11.5 39.5v455zM197 855v42l211 88v-42z" />
    <glyph glyph-name="ocircumflex" unicode="&#xf4;" 
d="M45 0zM125 0q-45 0 -62.5 17.5t-17.5 64.5v588q0 42 4.5 68.5t17 40.5t34 19t55.5 5h232q34 0 56 -5t34.5 -19t17 -40.5t4.5 -68.5v-588q0 -47 -17.5 -64.5t-62.5 -17.5h-295zM405 564q0 46 -13.5 61t-50.5 15h-138q-19 0 -31 -3t-19 -11.5t-10 -23.5t-3 -38v-455
q0 -28 11 -39.5t38 -11.5h167q26 0 37.5 11.5t11.5 39.5v455zM356 855l-82 106l-81 -106h-56l115 141h43l114 -141h-53z" />
    <glyph glyph-name="otilde" unicode="&#xf5;" 
d="M45 0zM125 0q-45 0 -62.5 17.5t-17.5 64.5v588q0 42 4.5 68.5t17 40.5t34 19t55.5 5h232q34 0 56 -5t34.5 -19t17 -40.5t4.5 -68.5v-588q0 -47 -17.5 -64.5t-62.5 -17.5h-295zM405 564q0 46 -13.5 61t-50.5 15h-138q-19 0 -31 -3t-19 -11.5t-10 -23.5t-3 -38v-455
q0 -28 11 -39.5t38 -11.5h167q26 0 37.5 11.5t11.5 39.5v455zM386 923q-8 -13 -21.5 -22.5t-39.5 -9.5q-17 0 -30.5 6.5t-25.5 15t-23.5 15t-25.5 6.5q-17 0 -32 -10.5t-29 -29.5v47q8 13 22.5 23t39.5 10q17 0 30 -6.5t24.5 -15t23.5 -15t26 -6.5q23 0 36.5 11t24.5 28v-47
z" />
    <glyph glyph-name="odieresis" unicode="&#xf6;" 
d="M45 0zM125 0q-45 0 -62.5 17.5t-17.5 64.5v588q0 42 4.5 68.5t17 40.5t34 19t55.5 5h232q34 0 56 -5t34.5 -19t17 -40.5t4.5 -68.5v-588q0 -47 -17.5 -64.5t-62.5 -17.5h-295zM405 564q0 46 -13.5 61t-50.5 15h-138q-19 0 -31 -3t-19 -11.5t-10 -23.5t-3 -38v-455
q0 -28 11 -39.5t38 -11.5h167q26 0 37.5 11.5t11.5 39.5v455zM156 865v122h54v-122h-54zM336 865v122h54v-122h-54z" />
    <glyph glyph-name="divide" unicode="&#xf7;" horiz-adv-x="563" 
d="M45 80zM45 355v39h473v-39h-473zM242 510v134h78v-134h-78zM242 80v134h78v-134h-78z" />
    <glyph glyph-name="oslash" unicode="&#xf8;" 
d="M45 0zM184 0l-17 -66h-27l16 66h-31q-45 0 -62.5 17.5t-17.5 64.5v588q0 42 4.5 68.5t17 40.5t34 19t55.5 5h197l19 75h40l-20 -75q33 0 54 -5.5t33 -20t16.5 -40t4.5 -67.5v-588q0 -47 -17.5 -64.5t-62.5 -17.5h-236zM405 564q0 43 -12 58.5t-43 17.5l-151 -582h157
q26 0 37.5 11.5t11.5 39.5v455zM313 640h-110q-19 0 -31 -3t-19 -11.5t-10 -23.5t-3 -38v-455q0 -23 6.5 -34.5t23.5 -15.5z" />
    <glyph glyph-name="ugrave" unicode="&#xf9;" horiz-adv-x="555" 
d="M46 0zM127 0q-45 0 -63 17.5t-18 64.5v721h100v-694q0 -28 11.5 -39.5t37.5 -11.5h209v745h101v-803h-378zM142 943v42l211 -88v-42z" />
    <glyph glyph-name="uacute" unicode="&#xfa;" horiz-adv-x="555" 
d="M46 0zM127 0q-45 0 -63 17.5t-18 64.5v721h100v-694q0 -28 11.5 -39.5t37.5 -11.5h209v745h101v-803h-378zM202 855v42l211 88v-42z" />
    <glyph glyph-name="ucircumflex" unicode="&#xfb;" horiz-adv-x="555" 
d="M46 0zM127 0q-45 0 -63 17.5t-18 64.5v721h100v-694q0 -28 11.5 -39.5t37.5 -11.5h209v745h101v-803h-378zM360 855l-82 106l-81 -106h-56l115 141h43l114 -141h-53z" />
    <glyph glyph-name="udieresis" unicode="&#xfc;" horiz-adv-x="555" 
d="M46 0zM127 0q-45 0 -63 17.5t-18 64.5v721h100v-694q0 -28 11.5 -39.5t37.5 -11.5h209v745h101v-803h-378zM160 865v122h54v-122h-54zM340 865v122h54v-122h-54z" />
    <glyph glyph-name="yacute" unicode="&#xfd;" 
d="M43 0zM43 0v58h307q26 0 37 11.5t11 39.5v94h-275q-45 0 -62.5 17.5t-17.5 64.5v518h100v-491q0 -28 11 -40t38 -12h206v543h100v-721q0 -47 -17 -64.5t-62 -17.5h-376zM197 855v42l211 88v-42z" />
    <glyph glyph-name="thorn" unicode="&#xfe;" horiz-adv-x="542" 
d="M49 0zM408 501q0 50 -14 67t-50 17h-190v-415h196q31 0 44.5 13.5t13.5 54.5v263zM154 113v-114h-105v804h106v-90h254q29 0 48 -5t30.5 -19.5t16 -40.5t4.5 -68v-362q0 -33 -4 -54t-14 -32t-25.5 -15t-38.5 -4h-272z" />
    <glyph glyph-name="ydieresis" unicode="&#xff;" 
d="M43 0zM43 0v58h307q26 0 37 11.5t11 39.5v94h-275q-45 0 -62.5 17.5t-17.5 64.5v518h100v-491q0 -28 11 -40t38 -12h206v543h100v-721q0 -47 -17 -64.5t-62 -17.5h-376zM156 865v122h54v-122h-54zM336 865v122h54v-122h-54z" />
    <glyph glyph-name="Amacron" unicode="&#x100;" horiz-adv-x="535" 
d="M22 0zM409 0l-21 185h-244l-19 -185h-103l77 754q5 49 42 49h258q19 0 28 -13t11 -36l75 -754h-104zM342 622q-3 24 -19 24h-116q-15 0 -18 -24l-40 -370q0 -8 9 -8h216q8 0 8 8zM164 908v40h207v-40h-207z" />
    <glyph glyph-name="amacron" unicode="&#x101;" horiz-adv-x="535" 
d="M22 0zM409 0l-21 185h-244l-19 -185h-103l77 754q5 49 42 49h258q19 0 28 -13t11 -36l75 -754h-104zM342 622q-3 24 -19 24h-116q-15 0 -18 -24l-40 -370q0 -8 9 -8h216q8 0 8 8zM164 908v40h207v-40h-207z" />
    <glyph glyph-name="Abreve" unicode="&#x102;" horiz-adv-x="535" 
d="M22 0zM409 0l-21 185h-244l-19 -185h-103l77 754q5 49 42 49h258q19 0 28 -13t11 -36l75 -754h-104zM342 622q-3 24 -19 24h-116q-15 0 -18 -24l-40 -370q0 -8 9 -8h216q8 0 8 8zM385 990q0 -35 -5.5 -60t-19 -41.5t-36.5 -24.5t-58 -8t-58 8t-36 24.5t-18 41.5t-5 60h43
q1 -56 16.5 -77t57.5 -21t58 21t17 77h44z" />
    <glyph glyph-name="abreve" unicode="&#x103;" horiz-adv-x="535" 
d="M22 0zM409 0l-21 185h-244l-19 -185h-103l77 754q5 49 42 49h258q19 0 28 -13t11 -36l75 -754h-104zM342 622q-3 24 -19 24h-116q-15 0 -18 -24l-40 -370q0 -8 9 -8h216q8 0 8 8zM385 990q0 -35 -5.5 -60t-19 -41.5t-36.5 -24.5t-58 -8t-58 8t-36 24.5t-18 41.5t-5 60h43
q1 -56 16.5 -77t57.5 -21t58 21t17 77h44z" />
    <glyph glyph-name="Aogonek" unicode="&#x104;" horiz-adv-x="535" 
d="M432 -188q-37 0 -58 22.5t-21 51.5q0 28 16 48t42 34l60 32h-62l-21 185h-244l-19 -185h-103l77 754q5 49 42 49h258q19 0 28 -13t11 -36l75 -754l-87 -51q-11 -6 -15.5 -15.5t-4.5 -20.5q0 -14 8.5 -24.5t25.5 -10.5h72v-66h-80zM342 622q-3 24 -19 24h-116
q-15 0 -18 -24l-40 -370q0 -8 9 -8h216q8 0 8 8z" />
    <glyph glyph-name="aogonek" unicode="&#x105;" horiz-adv-x="535" 
d="M22 0zM432 -188q-37 0 -58 22.5t-21 51.5q0 28 16 48t42 34l60 32h-62l-21 185h-244l-19 -185h-103l77 754q5 49 42 49h258q19 0 28 -13t11 -36l75 -754l-87 -51q-11 -6 -15.5 -15.5t-4.5 -20.5q0 -14 8.5 -24.5t25.5 -10.5h72v-66h-80zM342 622q-3 24 -19 24h-116
q-15 0 -18 -24l-40 -370q0 -8 9 -8h216q8 0 8 8z" />
    <glyph glyph-name="Cacute" unicode="&#x106;" horiz-adv-x="549" 
d="M45 0zM125 0q-45 0 -62.5 17.5t-17.5 64.5v588q0 42 4.5 68.5t17 40.5t34 19t55.5 5h238q34 0 56 -5t34.5 -19t17 -40.5t4.5 -68.5v-459h-103v353q0 46 -13.5 61t-50.5 15h-132q-18 0 -30 -3t-19 -11.5t-10 -23.5t-3 -38v-455q0 -28 11 -39.5t37 -11.5h310v-58h-378z
M209 855v42l211 88v-42z" />
    <glyph glyph-name="cacute" unicode="&#x107;" horiz-adv-x="549" 
d="M45 0zM125 0q-45 0 -62.5 17.5t-17.5 64.5v588q0 42 4.5 68.5t17 40.5t34 19t55.5 5h238q34 0 56 -5t34.5 -19t17 -40.5t4.5 -68.5v-459h-103v353q0 46 -13.5 61t-50.5 15h-132q-18 0 -30 -3t-19 -11.5t-10 -23.5t-3 -38v-455q0 -28 11 -39.5t37 -11.5h310v-58h-378z
M209 855v42l211 88v-42z" />
    <glyph glyph-name="Cdotaccent" unicode="&#x10a;" horiz-adv-x="549" 
d="M45 0zM125 0q-45 0 -62.5 17.5t-17.5 64.5v588q0 42 4.5 68.5t17 40.5t34 19t55.5 5h238q34 0 56 -5t34.5 -19t17 -40.5t4.5 -68.5v-459h-103v353q0 46 -13.5 61t-50.5 15h-132q-18 0 -30 -3t-19 -11.5t-10 -23.5t-3 -38v-455q0 -28 11 -39.5t37 -11.5h310v-58h-378z
M252 865v122h54v-122h-54z" />
    <glyph glyph-name="cdotaccent" unicode="&#x10b;" horiz-adv-x="549" 
d="M45 0zM125 0q-45 0 -62.5 17.5t-17.5 64.5v588q0 42 4.5 68.5t17 40.5t34 19t55.5 5h238q34 0 56 -5t34.5 -19t17 -40.5t4.5 -68.5v-459h-103v353q0 46 -13.5 61t-50.5 15h-132q-18 0 -30 -3t-19 -11.5t-10 -23.5t-3 -38v-455q0 -28 11 -39.5t37 -11.5h310v-58h-378z
M252 865v122h54v-122h-54z" />
    <glyph glyph-name="Ccaron" unicode="&#x10c;" horiz-adv-x="549" 
d="M45 0zM125 0q-45 0 -62.5 17.5t-17.5 64.5v588q0 42 4.5 68.5t17 40.5t34 19t55.5 5h238q34 0 56 -5t34.5 -19t17 -40.5t4.5 -68.5v-459h-103v353q0 46 -13.5 61t-50.5 15h-132q-18 0 -30 -3t-19 -11.5t-10 -23.5t-3 -38v-455q0 -28 11 -39.5t37 -11.5h310v-58h-378z
M259 855l-114 141h53l82 -107l82 107h55l-115 -141h-43z" />
    <glyph glyph-name="ccaron" unicode="&#x10d;" horiz-adv-x="549" 
d="M45 0zM125 0q-45 0 -62.5 17.5t-17.5 64.5v588q0 42 4.5 68.5t17 40.5t34 19t55.5 5h238q34 0 56 -5t34.5 -19t17 -40.5t4.5 -68.5v-459h-103v353q0 46 -13.5 61t-50.5 15h-132q-18 0 -30 -3t-19 -11.5t-10 -23.5t-3 -38v-455q0 -28 11 -39.5t37 -11.5h310v-58h-378z
M259 855l-114 141h53l82 -107l82 107h55l-115 -141h-43z" />
    <glyph glyph-name="Dcaron" unicode="&#x10e;" horiz-adv-x="550" 
d="M49 0zM49 0v803h344q34 0 56 -5t34.5 -19t17 -40.5t4.5 -68.5v-588q0 -47 -18 -64.5t-63 -17.5h-375zM410 564q0 46 -13.5 61t-50.5 15h-201v-582h216q26 0 37.5 11.5t11.5 39.5v455zM238 855l-114 141h53l82 -107l82 107h55l-115 -141h-43z" />
    <glyph glyph-name="dcaron" unicode="&#x10f;" horiz-adv-x="550" 
d="M49 0zM49 0v803h344q34 0 56 -5t34.5 -19t17 -40.5t4.5 -68.5v-588q0 -47 -18 -64.5t-63 -17.5h-375zM410 564q0 46 -13.5 61t-50.5 15h-201v-582h216q26 0 37.5 11.5t11.5 39.5v455zM238 855l-114 141h53l82 -107l82 107h55l-115 -141h-43z" />
    <glyph glyph-name="Dcroat" unicode="&#x110;" horiz-adv-x="539" 
d="M7 0zM38 0v227h-31v58h31v518h344q34 0 55.5 -5t34 -19t17 -40.5t4.5 -68.5v-588q0 -47 -17.5 -64.5t-62.5 -17.5h-375zM398 564q0 23 -3 38t-10 23.5t-19.5 11.5t-30.5 3h-202v-355h147v-58h-147v-169h216q27 0 38 11.5t11 39.5v455z" />
    <glyph glyph-name="dcroat" unicode="&#x111;" horiz-adv-x="539" 
d="M7 0zM38 0v227h-31v58h31v518h344q34 0 55.5 -5t34 -19t17 -40.5t4.5 -68.5v-588q0 -47 -17.5 -64.5t-62.5 -17.5h-375zM398 564q0 23 -3 38t-10 23.5t-19.5 11.5t-30.5 3h-202v-355h147v-58h-147v-169h216q27 0 38 11.5t11 39.5v455z" />
    <glyph glyph-name="Emacron" unicode="&#x112;" horiz-adv-x="517" 
d="M45 0zM125 0q-45 0 -62.5 17.5t-17.5 64.5v588q0 42 4.5 68.5t17 40.5t34 19t55.5 5h321v-163h-268q-18 0 -30 -3t-19 -11.5t-10 -23.5t-3 -38v-264q0 -15 15 -15h310v-58h-310q-15 0 -15 -18v-100q0 -28 11 -39.5t37 -11.5h282v-58h-352zM178 908v40h207v-40h-207z" />
    <glyph glyph-name="emacron" unicode="&#x113;" horiz-adv-x="517" 
d="M45 0zM125 0q-45 0 -62.5 17.5t-17.5 64.5v588q0 42 4.5 68.5t17 40.5t34 19t55.5 5h321v-163h-268q-18 0 -30 -3t-19 -11.5t-10 -23.5t-3 -38v-264q0 -15 15 -15h310v-58h-310q-15 0 -15 -18v-100q0 -28 11 -39.5t37 -11.5h282v-58h-352zM178 908v40h207v-40h-207z" />
    <glyph glyph-name="Ebreve" unicode="&#x114;" horiz-adv-x="517" 
d="M45 0zM125 0q-45 0 -62.5 17.5t-17.5 64.5v588q0 42 4.5 68.5t17 40.5t34 19t55.5 5h321v-163h-268q-18 0 -30 -3t-19 -11.5t-10 -23.5t-3 -38v-264q0 -15 15 -15h310v-58h-310q-15 0 -15 -18v-100q0 -28 11 -39.5t37 -11.5h282v-58h-352zM389 990q0 -35 -5.5 -60
t-19 -41.5t-36.5 -24.5t-58 -8t-58 8t-36 24.5t-18 41.5t-5 60h43q1 -56 16.5 -77t57.5 -21t58 21t17 77h44z" />
    <glyph glyph-name="ebreve" unicode="&#x115;" horiz-adv-x="517" 
d="M45 0zM125 0q-45 0 -62.5 17.5t-17.5 64.5v588q0 42 4.5 68.5t17 40.5t34 19t55.5 5h321v-163h-268q-18 0 -30 -3t-19 -11.5t-10 -23.5t-3 -38v-264q0 -15 15 -15h310v-58h-310q-15 0 -15 -18v-100q0 -28 11 -39.5t37 -11.5h282v-58h-352zM389 990q0 -35 -5.5 -60
t-19 -41.5t-36.5 -24.5t-58 -8t-58 8t-36 24.5t-18 41.5t-5 60h43q1 -56 16.5 -77t57.5 -21t58 21t17 77h44z" />
    <glyph glyph-name="Edotaccent" unicode="&#x116;" horiz-adv-x="517" 
d="M45 0zM125 0q-45 0 -62.5 17.5t-17.5 64.5v588q0 42 4.5 68.5t17 40.5t34 19t55.5 5h321v-163h-268q-18 0 -30 -3t-19 -11.5t-10 -23.5t-3 -38v-264q0 -15 15 -15h310v-58h-310q-15 0 -15 -18v-100q0 -28 11 -39.5t37 -11.5h282v-58h-352zM254 865v122h54v-122h-54z" />
    <glyph glyph-name="edotaccent" unicode="&#x117;" horiz-adv-x="517" 
d="M45 0zM125 0q-45 0 -62.5 17.5t-17.5 64.5v588q0 42 4.5 68.5t17 40.5t34 19t55.5 5h321v-163h-268q-18 0 -30 -3t-19 -11.5t-10 -23.5t-3 -38v-264q0 -15 15 -15h310v-58h-310q-15 0 -15 -18v-100q0 -28 11 -39.5t37 -11.5h282v-58h-352zM254 865v122h54v-122h-54z" />
    <glyph glyph-name="Eogonek" unicode="&#x118;" horiz-adv-x="517" 
d="M396 -188q-37 0 -58 22.5t-21 51.5q0 28 16 48t42 34l60 32h-310q-45 0 -62.5 17.5t-17.5 64.5v588q0 42 4.5 68.5t17 40.5t34 19t55.5 5h321v-163h-268q-18 0 -30 -3t-19 -11.5t-10 -23.5t-3 -38v-264q0 -15 15 -15h310v-58h-310q-15 0 -15 -18v-100q0 -28 11 -39.5
t37 -11.5h282v-58l-87 -51q-11 -6 -15.5 -15.5t-4.5 -20.5q0 -14 8.5 -24.5t25.5 -10.5h72v-66h-80z" />
    <glyph glyph-name="eogonek" unicode="&#x119;" horiz-adv-x="517" 
d="M45 0zM396 -188q-37 0 -58 22.5t-21 51.5q0 28 16 48t42 34l60 32h-310q-45 0 -62.5 17.5t-17.5 64.5v588q0 42 4.5 68.5t17 40.5t34 19t55.5 5h321v-163h-268q-18 0 -30 -3t-19 -11.5t-10 -23.5t-3 -38v-264q0 -15 15 -15h310v-58h-310q-15 0 -15 -18v-100
q0 -28 11 -39.5t37 -11.5h282v-58l-87 -51q-11 -6 -15.5 -15.5t-4.5 -20.5q0 -14 8.5 -24.5t25.5 -10.5h72v-66h-80z" />
    <glyph glyph-name="Ecaron" unicode="&#x11a;" horiz-adv-x="517" 
d="M45 0zM125 0q-45 0 -62.5 17.5t-17.5 64.5v588q0 42 4.5 68.5t17 40.5t34 19t55.5 5h321v-163h-268q-18 0 -30 -3t-19 -11.5t-10 -23.5t-3 -38v-264q0 -15 15 -15h310v-58h-310q-15 0 -15 -18v-100q0 -28 11 -39.5t37 -11.5h282v-58h-352zM249 855l-114 141h53l82 -107
l82 107h55l-115 -141h-43z" />
    <glyph glyph-name="ecaron" unicode="&#x11b;" horiz-adv-x="517" 
d="M45 0zM125 0q-45 0 -62.5 17.5t-17.5 64.5v588q0 42 4.5 68.5t17 40.5t34 19t55.5 5h321v-163h-268q-18 0 -30 -3t-19 -11.5t-10 -23.5t-3 -38v-264q0 -15 15 -15h310v-58h-310q-15 0 -15 -18v-100q0 -28 11 -39.5t37 -11.5h282v-58h-352zM249 855l-114 141h53l82 -107
l82 107h55l-115 -141h-43z" />
    <glyph glyph-name="Gbreve" unicode="&#x11e;" horiz-adv-x="550" 
d="M45 0zM125 0q-45 0 -62.5 17.5t-17.5 64.5v588q0 42 4.5 68.5t17 40.5t34 19t55.5 5h238q34 0 56 -5.5t34.5 -20t17 -40.5t4.5 -67v-283h-103v177q0 44 -12.5 60t-51.5 16h-132q-18 0 -30 -3t-19 -11.5t-10 -23.5t-3 -38v-455q0 -28 10.5 -39.5t37.5 -11.5h196
q19 0 19 19v174h-129v58h224v-309h-378zM391 990q0 -35 -5.5 -60t-19 -41.5t-36.5 -24.5t-58 -8t-58 8t-36 24.5t-18 41.5t-5 60h43q1 -56 16.5 -77t57.5 -21t58 21t17 77h44z" />
    <glyph glyph-name="gbreve" unicode="&#x11f;" horiz-adv-x="550" 
d="M45 0zM125 0q-45 0 -62.5 17.5t-17.5 64.5v588q0 42 4.5 68.5t17 40.5t34 19t55.5 5h238q34 0 56 -5.5t34.5 -20t17 -40.5t4.5 -67v-283h-103v177q0 44 -12.5 60t-51.5 16h-132q-18 0 -30 -3t-19 -11.5t-10 -23.5t-3 -38v-455q0 -28 10.5 -39.5t37.5 -11.5h196
q19 0 19 19v174h-129v58h224v-309h-378zM391 990q0 -35 -5.5 -60t-19 -41.5t-36.5 -24.5t-58 -8t-58 8t-36 24.5t-18 41.5t-5 60h43q1 -56 16.5 -77t57.5 -21t58 21t17 77h44z" />
    <glyph glyph-name="Gdotaccent" unicode="&#x120;" horiz-adv-x="550" 
d="M45 0zM125 0q-45 0 -62.5 17.5t-17.5 64.5v588q0 42 4.5 68.5t17 40.5t34 19t55.5 5h238q34 0 56 -5.5t34.5 -20t17 -40.5t4.5 -67v-283h-103v177q0 44 -12.5 60t-51.5 16h-132q-18 0 -30 -3t-19 -11.5t-10 -23.5t-3 -38v-455q0 -28 10.5 -39.5t37.5 -11.5h196
q19 0 19 19v174h-129v58h224v-309h-378zM248 865v122h54v-122h-54z" />
    <glyph glyph-name="gdotaccent" unicode="&#x121;" horiz-adv-x="550" 
d="M45 0zM125 0q-45 0 -62.5 17.5t-17.5 64.5v588q0 42 4.5 68.5t17 40.5t34 19t55.5 5h238q34 0 56 -5.5t34.5 -20t17 -40.5t4.5 -67v-283h-103v177q0 44 -12.5 60t-51.5 16h-132q-18 0 -30 -3t-19 -11.5t-10 -23.5t-3 -38v-455q0 -28 10.5 -39.5t37.5 -11.5h196
q19 0 19 19v174h-129v58h224v-309h-378zM248 865v122h54v-122h-54z" />
    <glyph glyph-name="Gcommaaccent" unicode="&#x122;" horiz-adv-x="550" 
d="M45 0zM125 0q-45 0 -62.5 17.5t-17.5 64.5v588q0 42 4.5 68.5t17 40.5t34 19t55.5 5h238q34 0 56 -5.5t34.5 -20t17 -40.5t4.5 -67v-283h-103v177q0 44 -12.5 60t-51.5 16h-132q-18 0 -30 -3t-19 -11.5t-10 -23.5t-3 -38v-455q0 -28 10.5 -39.5t37.5 -11.5h196
q19 0 19 19v174h-129v58h224v-309h-378zM241 -189v26h18q12 0 12 14v36h-19v65h60v-90q0 -8 -1 -17t-5 -16.5t-12 -12.5t-21 -5h-32z" />
    <glyph glyph-name="gcommaaccent" unicode="&#x123;" horiz-adv-x="550" 
d="M45 0zM125 0q-45 0 -62.5 17.5t-17.5 64.5v588q0 42 4.5 68.5t17 40.5t34 19t55.5 5h238q34 0 56 -5.5t34.5 -20t17 -40.5t4.5 -67v-283h-103v177q0 44 -12.5 60t-51.5 16h-132q-18 0 -30 -3t-19 -11.5t-10 -23.5t-3 -38v-455q0 -28 10.5 -39.5t37.5 -11.5h196
q19 0 19 19v174h-129v58h224v-309h-378zM241 -189v26h18q12 0 12 14v36h-19v65h60v-90q0 -8 -1 -17t-5 -16.5t-12 -12.5t-21 -5h-32z" />
    <glyph glyph-name="Hbar" unicode="&#x126;" horiz-adv-x="577" 
d="M416 0v227h-255v-227h-112v803h112v-255h255v255h110v-803h-110zM416 285v223h-255v-223h255z" />
    <glyph glyph-name="hbar" unicode="&#x127;" horiz-adv-x="577" 
d="M49 0zM416 0v227h-255v-227h-112v803h112v-255h255v255h110v-803h-110zM416 285v223h-255v-223h255z" />
    <glyph glyph-name="uni012A" unicode="&#x12a;" horiz-adv-x="216" 
d="M6 0zM53 0v803h110v-803h-110zM6 908v40h207v-40h-207z" />
    <glyph glyph-name="imacron" unicode="&#x12b;" horiz-adv-x="216" 
d="M6 0zM53 0v803h110v-803h-110zM6 908v40h207v-40h-207z" />
    <glyph glyph-name="Ibreve" unicode="&#x12c;" horiz-adv-x="216" 
d="M0 0zM53 0v803h110v-803h-110zM227 990q0 -35 -5.5 -60t-19 -41.5t-36.5 -24.5t-58 -8t-58 8t-36 24.5t-18 41.5t-5 60h43q1 -56 16.5 -77t57.5 -21t58 21t17 77h44z" />
    <glyph glyph-name="ibreve" unicode="&#x12d;" horiz-adv-x="216" 
d="M0 0zM53 0v803h110v-803h-110zM227 990q0 -35 -5.5 -60t-19 -41.5t-36.5 -24.5t-58 -8t-58 8t-36 24.5t-18 41.5t-5 60h43q1 -56 16.5 -77t57.5 -21t58 21t17 77h44z" />
    <glyph glyph-name="Iogonek" unicode="&#x12e;" horiz-adv-x="216" 
d="M82 -188q-37 0 -58 22.5t-21 51.5q0 28 16 48t42 34l60 32h-68v803h110v-803l-87 -51q-11 -6 -15.5 -15.5t-4.5 -20.5q0 -14 8.5 -24.5t25.5 -10.5h72v-66h-80z" />
    <glyph glyph-name="iogonek" unicode="&#x12f;" horiz-adv-x="216" 
d="M3 0zM82 -188q-37 0 -58 22.5t-21 51.5q0 28 16 48t42 34l60 32h-68v803h110v-803l-87 -51q-11 -6 -15.5 -15.5t-4.5 -20.5q0 -14 8.5 -24.5t25.5 -10.5h72v-66h-80z" />
    <glyph glyph-name="Idotaccent" unicode="&#x130;" horiz-adv-x="216" 
d="M53 0zM53 0v803h110v-803h-110zM81 865v122h54v-122h-54z" />
    <glyph glyph-name="dotlessi" unicode="&#x131;" horiz-adv-x="216" 
d="M53 0zM53 0v803h110v-803h-110z" />
    <glyph glyph-name="IJ" unicode="&#x132;" horiz-adv-x="754" 
d="M53 0zM53 0v803h110v-803h-110zM334 0q-45 0 -63 17.5t-18 64.5v226h104v-199q0 -28 11 -39.5t37 -11.5h149q26 0 37 11.5t11 39.5v694h105v-721q0 -47 -17.5 -64.5t-62.5 -17.5h-293z" />
    <glyph glyph-name="ij" unicode="&#x133;" horiz-adv-x="754" 
d="M53 0zM53 0v803h110v-803h-110zM334 0q-45 0 -63 17.5t-18 64.5v226h104v-199q0 -28 11 -39.5t37 -11.5h149q26 0 37 11.5t11 39.5v694h105v-721q0 -47 -17.5 -64.5t-62.5 -17.5h-293z" />
    <glyph glyph-name="Kcommaaccent" unicode="&#x136;" horiz-adv-x="560" 
d="M49 0zM403 0l-241 243q-4 4 -11 4h-2v-247h-100v803h100v-475h2q7 0 11 5l272 470h119l-325 -518l293 -285h-118zM254 -189v26h18q12 0 12 14v36h-19v65h60v-90q0 -8 -1 -17t-5 -16.5t-12 -12.5t-21 -5h-32z" />
    <glyph glyph-name="kcommaaccent" unicode="&#x137;" horiz-adv-x="560" 
d="M49 0zM403 0l-241 243q-4 4 -11 4h-2v-247h-100v803h100v-475h2q7 0 11 5l272 470h119l-325 -518l293 -285h-118zM254 -189v26h18q12 0 12 14v36h-19v65h60v-90q0 -8 -1 -17t-5 -16.5t-12 -12.5t-21 -5h-32z" />
    <glyph glyph-name="Lacute" unicode="&#x139;" horiz-adv-x="526" 
d="M28 0zM49 0v803h104v-727q0 -18 18 -18h206q18 0 18 18v232h100v-308h-446zM28 855v42l211 88v-42z" />
    <glyph glyph-name="lacute" unicode="&#x13a;" horiz-adv-x="526" 
d="M28 0zM49 0v803h104v-727q0 -18 18 -18h206q18 0 18 18v232h100v-308h-446zM28 855v42l211 88v-42z" />
    <glyph glyph-name="Lcommaaccent" unicode="&#x13b;" horiz-adv-x="526" 
d="M49 0zM49 0v803h104v-727q0 -18 18 -18h206q18 0 18 18v232h100v-308h-446zM237 -189v26h18q12 0 12 14v36h-19v65h60v-90q0 -8 -1 -17t-5 -16.5t-12 -12.5t-21 -5h-32z" />
    <glyph glyph-name="lcommaaccent" unicode="&#x13c;" horiz-adv-x="526" 
d="M49 0zM49 0v803h104v-727q0 -18 18 -18h206q18 0 18 18v232h100v-308h-446zM237 -189v26h18q12 0 12 14v36h-19v65h60v-90q0 -8 -1 -17t-5 -16.5t-12 -12.5t-21 -5h-32z" />
    <glyph glyph-name="Lcaron" unicode="&#x13d;" horiz-adv-x="526" 
d="M49 0zM49 0v803h104v-727q0 -18 18 -18h206q18 0 18 18v232h100v-308h-446zM244 589v34h22q14 0 14 17v57h-24v106h79v-139q0 -12 -1 -25.5t-6 -24.5t-15 -18t-28 -7h-41z" />
    <glyph glyph-name="lcaron" unicode="&#x13e;" horiz-adv-x="526" 
d="M49 0zM49 0v803h104v-727q0 -18 18 -18h206q18 0 18 18v232h100v-308h-446zM244 589v34h22q14 0 14 17v57h-24v106h79v-139q0 -12 -1 -25.5t-6 -24.5t-15 -18t-28 -7h-41z" />
    <glyph glyph-name="Ldot" unicode="&#x13f;" horiz-adv-x="526" 
d="M49 0zM49 0v803h104v-727q0 -18 18 -18h206q18 0 18 18v232h100v-308h-446zM231 361v122h54v-122h-54z" />
    <glyph glyph-name="ldot" unicode="&#x140;" horiz-adv-x="526" 
d="M49 0zM49 0v803h104v-727q0 -18 18 -18h206q18 0 18 18v232h100v-308h-446zM231 361v122h54v-122h-54z" />
    <glyph glyph-name="Lslash" unicode="&#x141;" horiz-adv-x="526" 
d="M49 0v803h104v-384l163 63v-49l-163 -63v-294q0 -18 18 -18h206q18 0 18 18v232h100v-308h-446z" />
    <glyph glyph-name="lslash" unicode="&#x142;" horiz-adv-x="526" 
d="M49 0zM49 0v803h104v-384l163 63v-49l-163 -63v-294q0 -18 18 -18h206q18 0 18 18v232h100v-308h-446z" />
    <glyph glyph-name="Nacute" unicode="&#x143;" horiz-adv-x="614" 
d="M49 0zM473 0q-21 0 -31 6t-18 23l-252 489q-5 9 -13 9h-8v-527h-102v803h81q22 0 32.5 -8.5t18.5 -26.5l274 -626q2 -5 7 -5h2v666h100v-803h-91zM231 855v42l211 88v-42z" />
    <glyph glyph-name="nacute" unicode="&#x144;" horiz-adv-x="614" 
d="M49 0zM473 0q-21 0 -31 6t-18 23l-252 489q-5 9 -13 9h-8v-527h-102v803h81q22 0 32.5 -8.5t18.5 -26.5l274 -626q2 -5 7 -5h2v666h100v-803h-91zM231 855v42l211 88v-42z" />
    <glyph glyph-name="Ncommaaccent" unicode="&#x145;" horiz-adv-x="614" 
d="M49 0zM473 0q-21 0 -31 6t-18 23l-252 489q-5 9 -13 9h-8v-527h-102v803h81q22 0 32.5 -8.5t18.5 -26.5l274 -626q2 -5 7 -5h2v666h100v-803h-91zM271 -189v26h18q12 0 12 14v36h-19v65h60v-90q0 -8 -1 -17t-5 -16.5t-12 -12.5t-21 -5h-32z" />
    <glyph glyph-name="ncommaaccent" unicode="&#x146;" horiz-adv-x="614" 
d="M49 0zM473 0q-21 0 -31 6t-18 23l-252 489q-5 9 -13 9h-8v-527h-102v803h81q22 0 32.5 -8.5t18.5 -26.5l274 -626q2 -5 7 -5h2v666h100v-803h-91zM271 -189v26h18q12 0 12 14v36h-19v65h60v-90q0 -8 -1 -17t-5 -16.5t-12 -12.5t-21 -5h-32z" />
    <glyph glyph-name="Ncaron" unicode="&#x147;" horiz-adv-x="614" 
d="M49 0zM473 0q-21 0 -31 6t-18 23l-252 489q-5 9 -13 9h-8v-527h-102v803h81q22 0 32.5 -8.5t18.5 -26.5l274 -626q2 -5 7 -5h2v666h100v-803h-91zM285 855l-114 141h53l82 -107l82 107h55l-115 -141h-43z" />
    <glyph glyph-name="ncaron" unicode="&#x148;" horiz-adv-x="614" 
d="M49 0zM473 0q-21 0 -31 6t-18 23l-252 489q-5 9 -13 9h-8v-527h-102v803h81q22 0 32.5 -8.5t18.5 -26.5l274 -626q2 -5 7 -5h2v666h100v-803h-91zM285 855l-114 141h53l82 -107l82 107h55l-115 -141h-43z" />
    <glyph glyph-name="Eng" unicode="&#x14a;" horiz-adv-x="614" 
d="M338 -189v58h73q26 0 37.5 11.5t16.5 39.5v80q-17 1 -25 7.5t-16 21.5l-252 489q-5 9 -13 9h-8v-527h-102v803h81q22 0 32.5 -8.5t18.5 -26.5l274 -626q0 -2 5 -4q2 -1 4 -1v666h100v-910q0 -47 -17.5 -64.5t-62.5 -17.5h-146z" />
    <glyph glyph-name="eng" unicode="&#x14b;" horiz-adv-x="614" 
d="M49 0zM338 -189v58h73q26 0 37.5 11.5t16.5 39.5v80q-17 1 -25 7.5t-16 21.5l-252 489q-5 9 -13 9h-8v-527h-102v803h81q22 0 32.5 -8.5t18.5 -26.5l274 -626q0 -2 5 -4q2 -1 4 -1v666h100v-910q0 -47 -17.5 -64.5t-62.5 -17.5h-146z" />
    <glyph glyph-name="Omacron" unicode="&#x14c;" 
d="M45 0zM125 0q-45 0 -62.5 17.5t-17.5 64.5v588q0 42 4.5 68.5t17 40.5t34 19t55.5 5h232q34 0 56 -5t34.5 -19t17 -40.5t4.5 -68.5v-588q0 -47 -17.5 -64.5t-62.5 -17.5h-295zM405 564q0 46 -13.5 61t-50.5 15h-138q-19 0 -31 -3t-19 -11.5t-10 -23.5t-3 -38v-455
q0 -28 11 -39.5t38 -11.5h167q26 0 37.5 11.5t11.5 39.5v455zM169 908v40h207v-40h-207z" />
    <glyph glyph-name="omacron" unicode="&#x14d;" 
d="M45 0zM125 0q-45 0 -62.5 17.5t-17.5 64.5v588q0 42 4.5 68.5t17 40.5t34 19t55.5 5h232q34 0 56 -5t34.5 -19t17 -40.5t4.5 -68.5v-588q0 -47 -17.5 -64.5t-62.5 -17.5h-295zM405 564q0 46 -13.5 61t-50.5 15h-138q-19 0 -31 -3t-19 -11.5t-10 -23.5t-3 -38v-455
q0 -28 11 -39.5t38 -11.5h167q26 0 37.5 11.5t11.5 39.5v455zM169 908v40h207v-40h-207z" />
    <glyph glyph-name="Obreve" unicode="&#x14e;" 
d="M45 0zM125 0q-45 0 -62.5 17.5t-17.5 64.5v588q0 42 4.5 68.5t17 40.5t34 19t55.5 5h232q34 0 56 -5t34.5 -19t17 -40.5t4.5 -68.5v-588q0 -47 -17.5 -64.5t-62.5 -17.5h-295zM405 564q0 46 -13.5 61t-50.5 15h-138q-19 0 -31 -3t-19 -11.5t-10 -23.5t-3 -38v-455
q0 -28 11 -39.5t38 -11.5h167q26 0 37.5 11.5t11.5 39.5v455zM391 990q0 -35 -5.5 -60t-19 -41.5t-36.5 -24.5t-58 -8t-58 8t-36 24.5t-18 41.5t-5 60h43q1 -56 16.5 -77t57.5 -21t58 21t17 77h44z" />
    <glyph glyph-name="obreve" unicode="&#x14f;" 
d="M45 0zM125 0q-45 0 -62.5 17.5t-17.5 64.5v588q0 42 4.5 68.5t17 40.5t34 19t55.5 5h232q34 0 56 -5t34.5 -19t17 -40.5t4.5 -68.5v-588q0 -47 -17.5 -64.5t-62.5 -17.5h-295zM405 564q0 46 -13.5 61t-50.5 15h-138q-19 0 -31 -3t-19 -11.5t-10 -23.5t-3 -38v-455
q0 -28 11 -39.5t38 -11.5h167q26 0 37.5 11.5t11.5 39.5v455zM391 990q0 -35 -5.5 -60t-19 -41.5t-36.5 -24.5t-58 -8t-58 8t-36 24.5t-18 41.5t-5 60h43q1 -56 16.5 -77t57.5 -21t58 21t17 77h44z" />
    <glyph glyph-name="Ohungarumlaut" unicode="&#x150;" 
d="M45 0zM125 0q-45 0 -62.5 17.5t-17.5 64.5v588q0 42 4.5 68.5t17 40.5t34 19t55.5 5h232q34 0 56 -5t34.5 -19t17 -40.5t4.5 -68.5v-588q0 -47 -17.5 -64.5t-62.5 -17.5h-295zM405 564q0 46 -13.5 61t-50.5 15h-138q-19 0 -31 -3t-19 -11.5t-10 -23.5t-3 -38v-455
q0 -28 11 -39.5t38 -11.5h167q26 0 37.5 11.5t11.5 39.5v455zM338 855l67 141h47l-67 -141h-47zM196 855l67 141h47l-67 -141h-47z" />
    <glyph glyph-name="ohungarumlaut" unicode="&#x151;" 
d="M45 0zM125 0q-45 0 -62.5 17.5t-17.5 64.5v588q0 42 4.5 68.5t17 40.5t34 19t55.5 5h232q34 0 56 -5t34.5 -19t17 -40.5t4.5 -68.5v-588q0 -47 -17.5 -64.5t-62.5 -17.5h-295zM405 564q0 46 -13.5 61t-50.5 15h-138q-19 0 -31 -3t-19 -11.5t-10 -23.5t-3 -38v-455
q0 -28 11 -39.5t38 -11.5h167q26 0 37.5 11.5t11.5 39.5v455zM338 855l67 141h47l-67 -141h-47zM196 855l67 141h47l-67 -141h-47z" />
    <glyph glyph-name="OE" unicode="&#x152;" horiz-adv-x="790" 
d="M125 0q-45 0 -62.5 17.5t-17.5 64.5v588q0 42 4.5 68.5t17 40.5t34 19t55.5 5h593v-163h-267q-17 0 -17 -17v-323q0 -15 15 -15h265v-58h-265q-15 0 -15 -18v-133q0 -18 18 -18h266v-58h-624zM369 623q0 17 -19 17h-147q-19 0 -31 -3t-19 -11.5t-10 -23.5t-3 -38v-455
q0 -28 11 -39.5t38 -11.5h161q19 0 19 18v547z" />
    <glyph glyph-name="oe" unicode="&#x153;" horiz-adv-x="790" 
d="M45 0zM125 0q-45 0 -62.5 17.5t-17.5 64.5v588q0 42 4.5 68.5t17 40.5t34 19t55.5 5h593v-163h-267q-17 0 -17 -17v-323q0 -15 15 -15h265v-58h-265q-15 0 -15 -18v-133q0 -18 18 -18h266v-58h-624zM369 623q0 17 -19 17h-147q-19 0 -31 -3t-19 -11.5t-10 -23.5t-3 -38
v-455q0 -28 11 -39.5t38 -11.5h161q19 0 19 18v547z" />
    <glyph glyph-name="Racute" unicode="&#x154;" horiz-adv-x="561" 
d="M49 0zM454 0q-33 0 -33 43v109q0 38 -16 51.5t-54 13.5h-200v-217h-102v803h363q32 0 52.5 -5t32 -19t16 -40t4.5 -69v-322q0 -27 -5 -45.5t-15 -30t-25 -17.5t-36 -8q21 -2 36 -6.5t25 -15t15 -28.5t5 -46v-112q0 -17 4.5 -25t14.5 -14h-82zM421 565q0 46 -11.5 60.5
t-45.5 14.5h-213v-365h200q38 0 54 13t16 49v228zM205 855v42l211 88v-42z" />
    <glyph glyph-name="racute" unicode="&#x155;" horiz-adv-x="561" 
d="M49 0zM454 0q-33 0 -33 43v109q0 38 -16 51.5t-54 13.5h-200v-217h-102v803h363q32 0 52.5 -5t32 -19t16 -40t4.5 -69v-322q0 -27 -5 -45.5t-15 -30t-25 -17.5t-36 -8q21 -2 36 -6.5t25 -15t15 -28.5t5 -46v-112q0 -17 4.5 -25t14.5 -14h-82zM421 565q0 46 -11.5 60.5
t-45.5 14.5h-213v-365h200q38 0 54 13t16 49v228zM205 855v42l211 88v-42z" />
    <glyph glyph-name="Rcommaaccent" unicode="&#x156;" horiz-adv-x="561" 
d="M49 0zM454 0q-33 0 -33 43v109q0 38 -16 51.5t-54 13.5h-200v-217h-102v803h363q32 0 52.5 -5t32 -19t16 -40t4.5 -69v-322q0 -27 -5 -45.5t-15 -30t-25 -17.5t-36 -8q21 -2 36 -6.5t25 -15t15 -28.5t5 -46v-112q0 -17 4.5 -25t14.5 -14h-82zM421 565q0 46 -11.5 60.5
t-45.5 14.5h-213v-365h200q38 0 54 13t16 49v228zM245 -189v26h18q12 0 12 14v36h-19v65h60v-90q0 -8 -1 -17t-5 -16.5t-12 -12.5t-21 -5h-32z" />
    <glyph glyph-name="rcommaaccent" unicode="&#x157;" horiz-adv-x="561" 
d="M49 0zM454 0q-33 0 -33 43v109q0 38 -16 51.5t-54 13.5h-200v-217h-102v803h363q32 0 52.5 -5t32 -19t16 -40t4.5 -69v-322q0 -27 -5 -45.5t-15 -30t-25 -17.5t-36 -8q21 -2 36 -6.5t25 -15t15 -28.5t5 -46v-112q0 -17 4.5 -25t14.5 -14h-82zM421 565q0 46 -11.5 60.5
t-45.5 14.5h-213v-365h200q38 0 54 13t16 49v228zM245 -189v26h18q12 0 12 14v36h-19v65h60v-90q0 -8 -1 -17t-5 -16.5t-12 -12.5t-21 -5h-32z" />
    <glyph glyph-name="Rcaron" unicode="&#x158;" horiz-adv-x="561" 
d="M49 0zM454 0q-33 0 -33 43v109q0 38 -16 51.5t-54 13.5h-200v-217h-102v803h363q32 0 52.5 -5t32 -19t16 -40t4.5 -69v-322q0 -27 -5 -45.5t-15 -30t-25 -17.5t-36 -8q21 -2 36 -6.5t25 -15t15 -28.5t5 -46v-112q0 -17 4.5 -25t14.5 -14h-82zM421 565q0 46 -11.5 60.5
t-45.5 14.5h-213v-365h200q38 0 54 13t16 49v228zM258 855l-114 141h53l82 -107l82 107h55l-115 -141h-43z" />
    <glyph glyph-name="rcaron" unicode="&#x159;" horiz-adv-x="561" 
d="M49 0zM454 0q-33 0 -33 43v109q0 38 -16 51.5t-54 13.5h-200v-217h-102v803h363q32 0 52.5 -5t32 -19t16 -40t4.5 -69v-322q0 -27 -5 -45.5t-15 -30t-25 -17.5t-36 -8q21 -2 36 -6.5t25 -15t15 -28.5t5 -46v-112q0 -17 4.5 -25t14.5 -14h-82zM421 565q0 46 -11.5 60.5
t-45.5 14.5h-213v-365h200q38 0 54 13t16 49v228zM258 855l-114 141h53l82 -107l82 107h55l-115 -141h-43z" />
    <glyph glyph-name="Sacute" unicode="&#x15a;" horiz-adv-x="549" 
d="M38 0zM38 0v58h324q27 0 37.5 11t10.5 40v76q0 23 -9 32.5t-31 9.5h-263q-38 0 -53.5 15t-15.5 55v373q0 42 4.5 68.5t17.5 40.5t34.5 19t56.5 5h250q33 0 54 -5.5t33 -20t16 -40.5t4 -67v-290h-98v185q0 44 -12 59.5t-46 15.5h-152q-19 0 -31 -3t-19.5 -11.5t-10.5 -23
t-3 -37.5v-236q0 -24 10 -34t33 -10h266q35 0 48.5 -15.5t13.5 -55.5v-131q0 -25 -4 -41t-13 -25.5t-24 -13t-38 -3.5h-390zM199 855v42l211 88v-42z" />
    <glyph glyph-name="sacute" unicode="&#x15b;" horiz-adv-x="549" 
d="M38 0zM38 0v58h324q27 0 37.5 11t10.5 40v76q0 23 -9 32.5t-31 9.5h-263q-38 0 -53.5 15t-15.5 55v373q0 42 4.5 68.5t17.5 40.5t34.5 19t56.5 5h250q33 0 54 -5.5t33 -20t16 -40.5t4 -67v-290h-98v185q0 44 -12 59.5t-46 15.5h-152q-19 0 -31 -3t-19.5 -11.5t-10.5 -23
t-3 -37.5v-236q0 -24 10 -34t33 -10h266q35 0 48.5 -15.5t13.5 -55.5v-131q0 -25 -4 -41t-13 -25.5t-24 -13t-38 -3.5h-390zM199 855v42l211 88v-42z" />
    <glyph glyph-name="Scedilla" unicode="&#x15e;" horiz-adv-x="549" 
d="M38 0zM38 0v58h324q27 0 37.5 11t10.5 40v76q0 23 -9 32.5t-31 9.5h-263q-38 0 -53.5 15t-15.5 55v373q0 42 4.5 68.5t17.5 40.5t34.5 19t56.5 5h250q33 0 54 -5.5t33 -20t16 -40.5t4 -67v-290h-98v185q0 44 -12 59.5t-46 15.5h-152q-19 0 -31 -3t-19.5 -11.5t-10.5 -23
t-3 -37.5v-236q0 -24 10 -34t33 -10h266q35 0 48.5 -15.5t13.5 -55.5v-131q0 -25 -4 -41t-13 -25.5t-24 -13t-38 -3.5h-390zM239 -189v26h18q12 0 12 14v36h-19v65h60v-90q0 -8 -1 -17t-5 -16.5t-12 -12.5t-21 -5h-32z" />
    <glyph glyph-name="scedilla" unicode="&#x15f;" horiz-adv-x="549" 
d="M38 0zM38 0v58h324q27 0 37.5 11t10.5 40v76q0 23 -9 32.5t-31 9.5h-263q-38 0 -53.5 15t-15.5 55v373q0 42 4.5 68.5t17.5 40.5t34.5 19t56.5 5h250q33 0 54 -5.5t33 -20t16 -40.5t4 -67v-290h-98v185q0 44 -12 59.5t-46 15.5h-152q-19 0 -31 -3t-19.5 -11.5t-10.5 -23
t-3 -37.5v-236q0 -24 10 -34t33 -10h266q35 0 48.5 -15.5t13.5 -55.5v-131q0 -25 -4 -41t-13 -25.5t-24 -13t-38 -3.5h-390zM239 -189v26h18q12 0 12 14v36h-19v65h60v-90q0 -8 -1 -17t-5 -16.5t-12 -12.5t-21 -5h-32z" />
    <glyph glyph-name="Scaron" unicode="&#x160;" horiz-adv-x="549" 
d="M38 0zM38 0v58h324q27 0 37.5 11t10.5 40v76q0 23 -9 32.5t-31 9.5h-263q-38 0 -53.5 15t-15.5 55v373q0 42 4.5 68.5t17.5 40.5t34.5 19t56.5 5h250q33 0 54 -5.5t33 -20t16 -40.5t4 -67v-290h-98v185q0 44 -12 59.5t-46 15.5h-152q-19 0 -31 -3t-19.5 -11.5t-10.5 -23
t-3 -37.5v-236q0 -24 10 -34t33 -10h266q35 0 48.5 -15.5t13.5 -55.5v-131q0 -25 -4 -41t-13 -25.5t-24 -13t-38 -3.5h-390zM246 855l-114 141h53l82 -107l82 107h55l-115 -141h-43z" />
    <glyph glyph-name="scaron" unicode="&#x161;" horiz-adv-x="549" 
d="M38 0zM38 0v58h324q27 0 37.5 11t10.5 40v76q0 23 -9 32.5t-31 9.5h-263q-38 0 -53.5 15t-15.5 55v373q0 42 4.5 68.5t17.5 40.5t34.5 19t56.5 5h250q33 0 54 -5.5t33 -20t16 -40.5t4 -67v-290h-98v185q0 44 -12 59.5t-46 15.5h-152q-19 0 -31 -3t-19.5 -11.5t-10.5 -23
t-3 -37.5v-236q0 -24 10 -34t33 -10h266q35 0 48.5 -15.5t13.5 -55.5v-131q0 -25 -4 -41t-13 -25.5t-24 -13t-38 -3.5h-390zM246 855l-114 141h53l82 -107l82 107h55l-115 -141h-43z" />
    <glyph glyph-name="Tcommaaccent" unicode="&#x162;" horiz-adv-x="497" 
d="M17 0zM198 0v622q0 18 -21 18h-160v163h461v-163h-160q-12 0 -16.5 -4.5t-4.5 -13.5v-622h-99zM208 -189v26h18q12 0 12 14v36h-19v65h60v-90q0 -8 -1 -17t-5 -16.5t-12 -12.5t-21 -5h-32z" />
    <glyph glyph-name="tcommaaccent" unicode="&#x163;" horiz-adv-x="497" 
d="M17 0zM198 0v622q0 18 -21 18h-160v163h461v-163h-160q-12 0 -16.5 -4.5t-4.5 -13.5v-622h-99zM208 -189v26h18q12 0 12 14v36h-19v65h60v-90q0 -8 -1 -17t-5 -16.5t-12 -12.5t-21 -5h-32z" />
    <glyph glyph-name="Tcaron" unicode="&#x164;" horiz-adv-x="497" 
d="M17 0zM198 0v622q0 18 -21 18h-160v163h461v-163h-160q-12 0 -16.5 -4.5t-4.5 -13.5v-622h-99zM226 855l-114 141h53l82 -107l82 107h55l-115 -141h-43z" />
    <glyph glyph-name="tcaron" unicode="&#x165;" horiz-adv-x="497" 
d="M17 0zM198 0v622q0 18 -21 18h-160v163h461v-163h-160q-12 0 -16.5 -4.5t-4.5 -13.5v-622h-99zM226 855l-114 141h53l82 -107l82 107h55l-115 -141h-43z" />
    <glyph glyph-name="Tbar" unicode="&#x166;" horiz-adv-x="497" 
d="M198 0v236h-84v49h84v337q0 18 -21 18h-160v163h461v-163h-160q-12 0 -16.5 -4.5t-4.5 -13.5v-337h85v-49h-85v-236h-99z" />
    <glyph glyph-name="tbar" unicode="&#x167;" horiz-adv-x="497" 
d="M17 0zM198 0v236h-84v49h84v337q0 18 -21 18h-160v163h461v-163h-160q-12 0 -16.5 -4.5t-4.5 -13.5v-337h85v-49h-85v-236h-99z" />
    <glyph glyph-name="Utilde" unicode="&#x168;" horiz-adv-x="555" 
d="M46 0zM127 0q-45 0 -63 17.5t-18 64.5v721h100v-694q0 -28 11.5 -39.5t37.5 -11.5h209v745h101v-803h-378zM391 923q-8 -13 -21.5 -22.5t-39.5 -9.5q-17 0 -30.5 6.5t-25.5 15t-23.5 15t-25.5 6.5q-17 0 -32 -10.5t-29 -29.5v47q8 13 22.5 23t39.5 10q17 0 30 -6.5
t24.5 -15t23.5 -15t26 -6.5q23 0 36.5 11t24.5 28v-47z" />
    <glyph glyph-name="utilde" unicode="&#x169;" horiz-adv-x="555" 
d="M46 0zM127 0q-45 0 -63 17.5t-18 64.5v721h100v-694q0 -28 11.5 -39.5t37.5 -11.5h209v745h101v-803h-378zM391 923q-8 -13 -21.5 -22.5t-39.5 -9.5q-17 0 -30.5 6.5t-25.5 15t-23.5 15t-25.5 6.5q-17 0 -32 -10.5t-29 -29.5v47q8 13 22.5 23t39.5 10q17 0 30 -6.5
t24.5 -15t23.5 -15t26 -6.5q23 0 36.5 11t24.5 28v-47z" />
    <glyph glyph-name="Umacron" unicode="&#x16a;" horiz-adv-x="555" 
d="M46 0zM127 0q-45 0 -63 17.5t-18 64.5v721h100v-694q0 -28 11.5 -39.5t37.5 -11.5h209v745h101v-803h-378zM174 908v40h207v-40h-207z" />
    <glyph glyph-name="umacron" unicode="&#x16b;" horiz-adv-x="555" 
d="M46 0zM127 0q-45 0 -63 17.5t-18 64.5v721h100v-694q0 -28 11.5 -39.5t37.5 -11.5h209v745h101v-803h-378zM174 908v40h207v-40h-207z" />
    <glyph glyph-name="Ubreve" unicode="&#x16c;" horiz-adv-x="555" 
d="M46 0zM127 0q-45 0 -63 17.5t-18 64.5v721h100v-694q0 -28 11.5 -39.5t37.5 -11.5h209v745h101v-803h-378zM395 990q0 -35 -5.5 -60t-19 -41.5t-36.5 -24.5t-58 -8t-58 8t-36 24.5t-18 41.5t-5 60h43q1 -56 16.5 -77t57.5 -21t58 21t17 77h44z" />
    <glyph glyph-name="ubreve" unicode="&#x16d;" horiz-adv-x="555" 
d="M46 0zM127 0q-45 0 -63 17.5t-18 64.5v721h100v-694q0 -28 11.5 -39.5t37.5 -11.5h209v745h101v-803h-378zM395 990q0 -35 -5.5 -60t-19 -41.5t-36.5 -24.5t-58 -8t-58 8t-36 24.5t-18 41.5t-5 60h43q1 -56 16.5 -77t57.5 -21t58 21t17 77h44z" />
    <glyph glyph-name="Uring" unicode="&#x16e;" horiz-adv-x="555" 
d="M46 0zM127 0q-45 0 -63 17.5t-18 64.5v721h100v-694q0 -28 11.5 -39.5t37.5 -11.5h209v745h101v-803h-378zM277 827q-48 0 -66 19.5t-18 66.5q0 46 18 64.5t66 18.5t66 -18.5t18 -64.5q0 -47 -18 -66.5t-66 -19.5zM277 852q30 0 43.5 14.5t13.5 46.5q0 31 -13.5 44.5
t-43.5 13.5q-31 0 -44 -13.5t-13 -44.5q0 -32 13 -46.5t44 -14.5z" />
    <glyph glyph-name="uring" unicode="&#x16f;" horiz-adv-x="555" 
d="M46 0zM127 0q-45 0 -63 17.5t-18 64.5v721h100v-694q0 -28 11.5 -39.5t37.5 -11.5h209v745h101v-803h-378zM277 827q-48 0 -66 19.5t-18 66.5q0 46 18 64.5t66 18.5t66 -18.5t18 -64.5q0 -47 -18 -66.5t-66 -19.5zM277 852q30 0 43.5 14.5t13.5 46.5q0 31 -13.5 44.5
t-43.5 13.5q-31 0 -44 -13.5t-13 -44.5q0 -32 13 -46.5t44 -14.5z" />
    <glyph glyph-name="Uhungarumlaut" unicode="&#x170;" horiz-adv-x="555" 
d="M46 0zM127 0q-45 0 -63 17.5t-18 64.5v721h100v-694q0 -28 11.5 -39.5t37.5 -11.5h209v745h101v-803h-378zM337 855l67 141h47l-67 -141h-47zM195 855l67 141h47l-67 -141h-47z" />
    <glyph glyph-name="uhungarumlaut" unicode="&#x171;" horiz-adv-x="555" 
d="M46 0zM127 0q-45 0 -63 17.5t-18 64.5v721h100v-694q0 -28 11.5 -39.5t37.5 -11.5h209v745h101v-803h-378zM337 855l67 141h47l-67 -141h-47zM195 855l67 141h47l-67 -141h-47z" />
    <glyph glyph-name="Uogonek" unicode="&#x172;" horiz-adv-x="555" 
d="M424 -188q-37 0 -58 22.5t-21 51.5q0 28 16 48t42 34l60 32h-336q-45 0 -63 17.5t-18 64.5v721h100v-694q0 -28 11.5 -39.5t37.5 -11.5h209v745h101v-803l-87 -51q-11 -6 -15.5 -15.5t-4.5 -20.5q0 -14 8.5 -24.5t25.5 -10.5h72v-66h-80z" />
    <glyph glyph-name="uogonek" unicode="&#x173;" horiz-adv-x="555" 
d="M46 0zM424 -188q-37 0 -58 22.5t-21 51.5q0 28 16 48t42 34l60 32h-336q-45 0 -63 17.5t-18 64.5v721h100v-694q0 -28 11.5 -39.5t37.5 -11.5h209v745h101v-803l-87 -51q-11 -6 -15.5 -15.5t-4.5 -20.5q0 -14 8.5 -24.5t25.5 -10.5h72v-66h-80z" />
    <glyph glyph-name="Wcircumflex" unicode="&#x174;" horiz-adv-x="705" 
d="M39 0zM456 0q-11 14 -27 42.5t-32 66t-28.5 81.5t-16.5 90q-5 -47 -17.5 -91.5t-28 -81.5t-31.5 -64.5t-26 -42.5h-100q-18 25 -37.5 67.5t-35.5 99t-26.5 125.5t-10.5 146v365h103v-351q0 -80 7.5 -141t18.5 -106.5t23.5 -77t23.5 -53.5q13 23 29.5 58.5t31.5 83.5
t25 108.5t10 133.5v345h82v-345q0 -73 10 -133.5t25 -108.5t32 -83.5t30 -58.5q10 22 22.5 53.5t24 77t19 106.5t7.5 141v351h102v-365q0 -77 -10 -146t-26 -125.5t-35.5 -99t-37.5 -67.5h-100zM435 855l-82 106l-81 -106h-56l115 141h43l114 -141h-53z" />
    <glyph glyph-name="wcircumflex" unicode="&#x175;" horiz-adv-x="705" 
d="M39 0zM456 0q-11 14 -27 42.5t-32 66t-28.5 81.5t-16.5 90q-5 -47 -17.5 -91.5t-28 -81.5t-31.5 -64.5t-26 -42.5h-100q-18 25 -37.5 67.5t-35.5 99t-26.5 125.5t-10.5 146v365h103v-351q0 -80 7.5 -141t18.5 -106.5t23.5 -77t23.5 -53.5q13 23 29.5 58.5t31.5 83.5
t25 108.5t10 133.5v345h82v-345q0 -73 10 -133.5t25 -108.5t32 -83.5t30 -58.5q10 22 22.5 53.5t24 77t19 106.5t7.5 141v351h102v-365q0 -77 -10 -146t-26 -125.5t-35.5 -99t-37.5 -67.5h-100zM435 855l-82 106l-81 -106h-56l115 141h43l114 -141h-53z" />
    <glyph glyph-name="Ycircumflex" unicode="&#x176;" 
d="M43 0zM43 0v58h307q26 0 37 11.5t11 39.5v94h-275q-45 0 -62.5 17.5t-17.5 64.5v518h100v-491q0 -28 11 -40t38 -12h206v543h100v-721q0 -47 -17 -64.5t-62 -17.5h-376zM356 855l-82 106l-81 -106h-56l115 141h43l114 -141h-53z" />
    <glyph glyph-name="ycircumflex" unicode="&#x177;" 
d="M43 0zM43 0v58h307q26 0 37 11.5t11 39.5v94h-275q-45 0 -62.5 17.5t-17.5 64.5v518h100v-491q0 -28 11 -40t38 -12h206v543h100v-721q0 -47 -17 -64.5t-62 -17.5h-376zM356 855l-82 106l-81 -106h-56l115 141h43l114 -141h-53z" />
    <glyph glyph-name="Ydieresis" unicode="&#x178;" 
d="M43 0zM43 0v58h307q26 0 37 11.5t11 39.5v94h-275q-45 0 -62.5 17.5t-17.5 64.5v518h100v-491q0 -28 11 -40t38 -12h206v543h100v-721q0 -47 -17 -64.5t-62 -17.5h-376zM156 865v122h54v-122h-54zM336 865v122h54v-122h-54z" />
    <glyph glyph-name="Zacute" unicode="&#x179;" horiz-adv-x="530" 
d="M31 0zM31 0v31q0 18 4 29t12 24l360 533q5 8 5 16q0 7 -8 7h-373v163h467v-152q0 -26 -6.5 -49t-20.5 -43l-337 -487q-3 -5 -3 -8q0 -6 9 -6h358v-58h-467zM189 855v42l211 88v-42z" />
    <glyph glyph-name="zacute" unicode="&#x17a;" horiz-adv-x="530" 
d="M31 0zM31 0v31q0 18 4 29t12 24l360 533q5 8 5 16q0 7 -8 7h-373v163h467v-152q0 -26 -6.5 -49t-20.5 -43l-337 -487q-3 -5 -3 -8q0 -6 9 -6h358v-58h-467zM189 855v42l211 88v-42z" />
    <glyph glyph-name="Zdotaccent" unicode="&#x17b;" horiz-adv-x="530" 
d="M31 0zM31 0v31q0 18 4 29t12 24l360 533q5 8 5 16q0 7 -8 7h-373v163h467v-152q0 -26 -6.5 -49t-20.5 -43l-337 -487q-3 -5 -3 -8q0 -6 9 -6h358v-58h-467zM238 865v122h54v-122h-54z" />
    <glyph glyph-name="zdotaccent" unicode="&#x17c;" horiz-adv-x="530" 
d="M31 0zM31 0v31q0 18 4 29t12 24l360 533q5 8 5 16q0 7 -8 7h-373v163h467v-152q0 -26 -6.5 -49t-20.5 -43l-337 -487q-3 -5 -3 -8q0 -6 9 -6h358v-58h-467zM238 865v122h54v-122h-54z" />
    <glyph glyph-name="Zcaron" unicode="&#x17d;" horiz-adv-x="530" 
d="M31 0zM31 0v31q0 18 4 29t12 24l360 533q5 8 5 16q0 7 -8 7h-373v163h467v-152q0 -26 -6.5 -49t-20.5 -43l-337 -487q-3 -5 -3 -8q0 -6 9 -6h358v-58h-467zM243 855l-114 141h53l82 -107l82 107h55l-115 -141h-43z" />
    <glyph glyph-name="zcaron" unicode="&#x17e;" horiz-adv-x="530" 
d="M31 0zM31 0v31q0 18 4 29t12 24l360 533q5 8 5 16q0 7 -8 7h-373v163h467v-152q0 -26 -6.5 -49t-20.5 -43l-337 -487q-3 -5 -3 -8q0 -6 9 -6h358v-58h-467zM243 855l-114 141h53l82 -107l82 107h55l-115 -141h-43z" />
    <glyph glyph-name="Scommaaccent" unicode="&#x218;" horiz-adv-x="549" 
d="M38 0zM38 0v58h324q27 0 37.5 11t10.5 40v76q0 23 -9 32.5t-31 9.5h-263q-38 0 -53.5 15t-15.5 55v373q0 42 4.5 68.5t17.5 40.5t34.5 19t56.5 5h250q33 0 54 -5.5t33 -20t16 -40.5t4 -67v-290h-98v185q0 44 -12 59.5t-46 15.5h-152q-19 0 -31 -3t-19.5 -11.5t-10.5 -23
t-3 -37.5v-236q0 -24 10 -34t33 -10h266q35 0 48.5 -15.5t13.5 -55.5v-131q0 -25 -4 -41t-13 -25.5t-24 -13t-38 -3.5h-390zM239 -189v26h18q12 0 12 14v36h-19v65h60v-90q0 -8 -1 -17t-5 -16.5t-12 -12.5t-21 -5h-32z" />
    <glyph glyph-name="scommaaccent" unicode="&#x219;" horiz-adv-x="549" 
d="M38 0zM38 0v58h324q27 0 37.5 11t10.5 40v76q0 23 -9 32.5t-31 9.5h-263q-38 0 -53.5 15t-15.5 55v373q0 42 4.5 68.5t17.5 40.5t34.5 19t56.5 5h250q33 0 54 -5.5t33 -20t16 -40.5t4 -67v-290h-98v185q0 44 -12 59.5t-46 15.5h-152q-19 0 -31 -3t-19.5 -11.5t-10.5 -23
t-3 -37.5v-236q0 -24 10 -34t33 -10h266q35 0 48.5 -15.5t13.5 -55.5v-131q0 -25 -4 -41t-13 -25.5t-24 -13t-38 -3.5h-390zM239 -189v26h18q12 0 12 14v36h-19v65h60v-90q0 -8 -1 -17t-5 -16.5t-12 -12.5t-21 -5h-32z" />
    <glyph glyph-name="uni021A" unicode="&#x21a;" horiz-adv-x="497" 
d="M17 0zM198 0v622q0 18 -21 18h-160v163h461v-163h-160q-12 0 -16.5 -4.5t-4.5 -13.5v-622h-99zM208 -189v26h18q12 0 12 14v36h-19v65h60v-90q0 -8 -1 -17t-5 -16.5t-12 -12.5t-21 -5h-32z" />
    <glyph glyph-name="uni021B" unicode="&#x21b;" horiz-adv-x="497" 
d="M17 0zM198 0v622q0 18 -21 18h-160v163h461v-163h-160q-12 0 -16.5 -4.5t-4.5 -13.5v-622h-99zM208 -189v26h18q12 0 12 14v36h-19v65h60v-90q0 -8 -1 -17t-5 -16.5t-12 -12.5t-21 -5h-32z" />
    <glyph glyph-name="circumflex" unicode="&#x2c6;" horiz-adv-x="363" 
d="M264 855l-82 106l-81 -106h-56l115 141h43l114 -141h-53z" />
    <glyph glyph-name="caron" unicode="&#x2c7;" horiz-adv-x="363" 
d="M159 855l-114 141h53l82 -107l82 107h55l-115 -141h-43z" />
    <glyph glyph-name="breve" unicode="&#x2d8;" horiz-adv-x="325" 
d="M281 990q0 -35 -5.5 -60t-19 -41.5t-36.5 -24.5t-58 -8t-58 8t-36 24.5t-18 41.5t-5 60h43q1 -56 16.5 -77t57.5 -21t58 21t17 77h44z" />
    <glyph glyph-name="dotaccent" unicode="&#x2d9;" horiz-adv-x="145" 
d="M45 865v122h54v-122h-54z" />
    <glyph glyph-name="ring" unicode="&#x2da;" horiz-adv-x="258" 
d="M129 827q-48 0 -66 19.5t-18 66.5q0 46 18 64.5t66 18.5t66 -18.5t18 -64.5q0 -47 -18 -66.5t-66 -19.5zM129 852q30 0 43.5 14.5t13.5 46.5q0 31 -13.5 44.5t-43.5 13.5q-31 0 -44 -13.5t-13 -44.5q0 -32 13 -46.5t44 -14.5z" />
    <glyph glyph-name="ogonek" unicode="&#x2db;" horiz-adv-x="249" 
d="M124 -188q-37 0 -58 22.5t-21 51.5q0 28 16 48t42 34l60 32h42l-87 -51q-11 -6 -15.5 -15.5t-4.5 -20.5q0 -14 8.5 -24.5t25.5 -10.5h72v-66h-80z" />
    <glyph glyph-name="tilde" unicode="&#x2dc;" horiz-adv-x="318" 
d="M272 923q-8 -13 -21.5 -22.5t-39.5 -9.5q-17 0 -30.5 6.5t-25.5 15t-23.5 15t-25.5 6.5q-17 0 -32 -10.5t-29 -29.5v47q8 13 22.5 23t39.5 10q17 0 30 -6.5t24.5 -15t23.5 -15t26 -6.5q23 0 36.5 11t24.5 28v-47z" />
    <glyph glyph-name="hungarumlaut" unicode="&#x2dd;" horiz-adv-x="347" 
d="M187 855l67 141h47l-67 -141h-47zM45 855l67 141h47l-67 -141h-47z" />
    <glyph glyph-name="commaaccent" unicode="&#x326;" horiz-adv-x="162" 
d="M45 -189v26h18q12 0 12 14v36h-19v65h60v-90q0 -8 -1 -17t-5 -16.5t-12 -12.5t-21 -5h-32z" />
    <glyph glyph-name="Wgrave" unicode="&#x1e80;" horiz-adv-x="705" 
d="M39 0zM456 0q-11 14 -27 42.5t-32 66t-28.5 81.5t-16.5 90q-5 -47 -17.5 -91.5t-28 -81.5t-31.5 -64.5t-26 -42.5h-100q-18 25 -37.5 67.5t-35.5 99t-26.5 125.5t-10.5 146v365h103v-351q0 -80 7.5 -141t18.5 -106.5t23.5 -77t23.5 -53.5q13 23 29.5 58.5t31.5 83.5
t25 108.5t10 133.5v345h82v-345q0 -73 10 -133.5t25 -108.5t32 -83.5t30 -58.5q10 22 22.5 53.5t24 77t19 106.5t7.5 141v351h102v-365q0 -77 -10 -146t-26 -125.5t-35.5 -99t-37.5 -67.5h-100zM217 943v42l211 -88v-42z" />
    <glyph glyph-name="wgrave" unicode="&#x1e81;" horiz-adv-x="705" 
d="M39 0zM456 0q-11 14 -27 42.5t-32 66t-28.5 81.5t-16.5 90q-5 -47 -17.5 -91.5t-28 -81.5t-31.5 -64.5t-26 -42.5h-100q-18 25 -37.5 67.5t-35.5 99t-26.5 125.5t-10.5 146v365h103v-351q0 -80 7.5 -141t18.5 -106.5t23.5 -77t23.5 -53.5q13 23 29.5 58.5t31.5 83.5
t25 108.5t10 133.5v345h82v-345q0 -73 10 -133.5t25 -108.5t32 -83.5t30 -58.5q10 22 22.5 53.5t24 77t19 106.5t7.5 141v351h102v-365q0 -77 -10 -146t-26 -125.5t-35.5 -99t-37.5 -67.5h-100zM217 943v42l211 -88v-42z" />
    <glyph glyph-name="Wacute" unicode="&#x1e82;" horiz-adv-x="705" 
d="M39 0zM456 0q-11 14 -27 42.5t-32 66t-28.5 81.5t-16.5 90q-5 -47 -17.5 -91.5t-28 -81.5t-31.5 -64.5t-26 -42.5h-100q-18 25 -37.5 67.5t-35.5 99t-26.5 125.5t-10.5 146v365h103v-351q0 -80 7.5 -141t18.5 -106.5t23.5 -77t23.5 -53.5q13 23 29.5 58.5t31.5 83.5
t25 108.5t10 133.5v345h82v-345q0 -73 10 -133.5t25 -108.5t32 -83.5t30 -58.5q10 22 22.5 53.5t24 77t19 106.5t7.5 141v351h102v-365q0 -77 -10 -146t-26 -125.5t-35.5 -99t-37.5 -67.5h-100zM277 855v42l211 88v-42z" />
    <glyph glyph-name="wacute" unicode="&#x1e83;" horiz-adv-x="705" 
d="M39 0zM456 0q-11 14 -27 42.5t-32 66t-28.5 81.5t-16.5 90q-5 -47 -17.5 -91.5t-28 -81.5t-31.5 -64.5t-26 -42.5h-100q-18 25 -37.5 67.5t-35.5 99t-26.5 125.5t-10.5 146v365h103v-351q0 -80 7.5 -141t18.5 -106.5t23.5 -77t23.5 -53.5q13 23 29.5 58.5t31.5 83.5
t25 108.5t10 133.5v345h82v-345q0 -73 10 -133.5t25 -108.5t32 -83.5t30 -58.5q10 22 22.5 53.5t24 77t19 106.5t7.5 141v351h102v-365q0 -77 -10 -146t-26 -125.5t-35.5 -99t-37.5 -67.5h-100zM277 855v42l211 88v-42z" />
    <glyph glyph-name="Wdieresis" unicode="&#x1e84;" horiz-adv-x="705" 
d="M39 0zM456 0q-11 14 -27 42.5t-32 66t-28.5 81.5t-16.5 90q-5 -47 -17.5 -91.5t-28 -81.5t-31.5 -64.5t-26 -42.5h-100q-18 25 -37.5 67.5t-35.5 99t-26.5 125.5t-10.5 146v365h103v-351q0 -80 7.5 -141t18.5 -106.5t23.5 -77t23.5 -53.5q13 23 29.5 58.5t31.5 83.5
t25 108.5t10 133.5v345h82v-345q0 -73 10 -133.5t25 -108.5t32 -83.5t30 -58.5q10 22 22.5 53.5t24 77t19 106.5t7.5 141v351h102v-365q0 -77 -10 -146t-26 -125.5t-35.5 -99t-37.5 -67.5h-100zM235 865v122h54v-122h-54zM415 865v122h54v-122h-54z" />
    <glyph glyph-name="wdieresis" unicode="&#x1e85;" horiz-adv-x="705" 
d="M39 0zM456 0q-11 14 -27 42.5t-32 66t-28.5 81.5t-16.5 90q-5 -47 -17.5 -91.5t-28 -81.5t-31.5 -64.5t-26 -42.5h-100q-18 25 -37.5 67.5t-35.5 99t-26.5 125.5t-10.5 146v365h103v-351q0 -80 7.5 -141t18.5 -106.5t23.5 -77t23.5 -53.5q13 23 29.5 58.5t31.5 83.5
t25 108.5t10 133.5v345h82v-345q0 -73 10 -133.5t25 -108.5t32 -83.5t30 -58.5q10 22 22.5 53.5t24 77t19 106.5t7.5 141v351h102v-365q0 -77 -10 -146t-26 -125.5t-35.5 -99t-37.5 -67.5h-100zM235 865v122h54v-122h-54zM415 865v122h54v-122h-54z" />
    <glyph glyph-name="Ygrave" unicode="&#x1ef2;" 
d="M43 0zM43 0v58h307q26 0 37 11.5t11 39.5v94h-275q-45 0 -62.5 17.5t-17.5 64.5v518h100v-491q0 -28 11 -40t38 -12h206v543h100v-721q0 -47 -17 -64.5t-62 -17.5h-376zM137 943v42l211 -88v-42z" />
    <glyph glyph-name="ygrave" unicode="&#x1ef3;" 
d="M43 0zM43 0v58h307q26 0 37 11.5t11 39.5v94h-275q-45 0 -62.5 17.5t-17.5 64.5v518h100v-491q0 -28 11 -40t38 -12h206v543h100v-721q0 -47 -17 -64.5t-62 -17.5h-376zM137 943v42l211 -88v-42z" />
    <glyph glyph-name="endash" unicode="&#x2013;" horiz-adv-x="485" 
d="M18 236v49h449v-49h-449z" />
    <glyph glyph-name="emdash" unicode="&#x2014;" horiz-adv-x="815" 
d="M18 236v49h778v-49h-778z" />
    <glyph glyph-name="quoteleft" unicode="&#x2018;" horiz-adv-x="180" 
d="M45 589v139q0 12 1 25.5t6 24.5t14.5 18t27.5 7h41v-34h-22q-14 0 -14 -17v-57h24v-106h-78z" />
    <glyph glyph-name="quoteright" unicode="&#x2019;" horiz-adv-x="180" 
d="M45 589v34h22q14 0 14 17v57h-24v106h79v-139q0 -12 -1 -25.5t-6 -24.5t-15 -18t-28 -7h-41z" />
    <glyph glyph-name="quotesinglbase" unicode="&#x201a;" horiz-adv-x="180" 
d="M45 -107v34h22q14 0 14 17v56h-24v106h79v-138q0 -12 -1.5 -25t-7 -24.5t-15.5 -18.5t-26 -7h-41z" />
    <glyph glyph-name="quotedblleft" unicode="&#x201c;" horiz-adv-x="355" 
d="M218 589v139q0 12 1 25.5t6 24.5t15 18t28 7h41v-34h-22q-14 0 -14 -17v-57h24v-106h-79zM45 589v139q0 12 1 25.5t6 24.5t14.5 18t27.5 7h41v-34h-22q-14 0 -14 -17v-57h24v-106h-78z" />
    <glyph glyph-name="quotedblright" unicode="&#x201d;" horiz-adv-x="355" 
d="M45 589v34h22q14 0 14 17v57h-24v106h79v-139q0 -12 -1 -25.5t-6 -24.5t-15 -18t-28 -7h-41zM219 589v34h22q14 0 14 17v57h-24v106h78v-139q0 -12 -1 -25.5t-6 -24.5t-14.5 -18t-27.5 -7h-41z" />
    <glyph glyph-name="quotedblbase" unicode="&#x201e;" horiz-adv-x="355" 
d="M45 -107v34h22q14 0 14 17v56h-24v106h79v-138q0 -12 -1.5 -25t-7 -24.5t-15.5 -18.5t-26 -7h-41zM219 -107v34h22q14 0 14 17v56h-24v106h78v-138q0 -12 -1.5 -25.5t-6.5 -24.5t-15 -18t-26 -7h-41z" />
    <glyph glyph-name="dagger" unicode="&#x2020;" horiz-adv-x="415" 
d="M180 0v551h-135v47h135v205h52v-205h138v-47h-138v-551h-52z" />
    <glyph glyph-name="daggerdbl" unicode="&#x2021;" horiz-adv-x="415" 
d="M180 0v205h-135v47h135v300h-135v47h135v204h52v-204h138v-47h-138v-300h138v-47h-138v-205h-52z" />
    <glyph glyph-name="bullet" unicode="&#x2022;" horiz-adv-x="347" 
d="M288 388q0 -23 -9 -43.5t-24.5 -36t-36 -24.5t-43.5 -9t-43.5 9t-36 24.5t-24.5 36t-9 43.5t9 43.5t24.5 36t36 24.5t43.5 9t43.5 -9t36 -24.5t24.5 -36t9 -43.5z" />
    <glyph glyph-name="ellipsis" unicode="&#x2026;" horiz-adv-x="845" 
d="M45 0zM45 0v134h78v-134h-78zM383 0v134h78v-134h-78zM721 0v134h78v-134h-78z" />
    <glyph glyph-name="perthousand" unicode="&#x2030;" horiz-adv-x="964" 
d="M45 0zM85 409q-23 0 -31.5 9t-8.5 32v294q0 21 2.5 34t8.5 20t17 9.5t28 2.5h116q17 0 28 -2.5t17 -9.5t8.5 -20t2.5 -34v-294q0 -23 -9 -32t-31 -9h-148zM225 691q0 23 -6.5 30.5t-25.5 7.5h-69q-19 0 -25 -7.5t-6 -30.5v-228q0 -14 5 -19.5t19 -5.5h84q24 0 24 25v228z
M67 -38l501 878h47l-499 -878h-49zM447 -10q-23 0 -31.5 9t-8.5 32v294q0 21 2.5 34t8.5 20t17 9.5t28 2.5h116q17 0 28 -2.5t17 -9.5t8.5 -20t2.5 -34v-294q0 -23 -9 -32t-31 -9h-148zM587 272q0 23 -6.5 30.5t-25.5 7.5h-69q-19 0 -25 -7.5t-6 -30.5v-228q0 -14 5 -19.5
t19 -5.5h84q24 0 24 25v228zM730 -10q-23 0 -31.5 9t-8.5 32v294q0 21 2.5 34t8.5 20t17 9.5t28 2.5h116q17 0 28 -2.5t17 -9.5t8.5 -20t2.5 -34v-294q0 -23 -9 -32t-31 -9h-148zM870 272q0 23 -6.5 30.5t-25.5 7.5h-69q-19 0 -25 -7.5t-6 -30.5v-228q0 -14 5 -19.5t19 -5.5
h84q24 0 24 25v228z" />
    <glyph glyph-name="guilsinglleft" unicode="&#x2039;" horiz-adv-x="238" 
d="M39 231v43l148 103v-43l-120 -81l120 -82v-43z" />
    <glyph glyph-name="guilsinglright" unicode="&#x203a;" horiz-adv-x="238" 
d="M45 128v43l120 82l-120 81v43l148 -103v-43z" />
    <glyph glyph-name="fraction" unicode="&#x2044;" horiz-adv-x="179" 
d="M-184 -38l501 878h47l-499 -878h-49z" />
    <glyph glyph-name="zerosuperior" unicode="&#x2070;" horiz-adv-x="303" 
d="M37 409zM77 409q-23 0 -31.5 9t-8.5 32v294q0 21 2.5 34t8.5 20t17 9.5t28 2.5h116q17 0 28 -2.5t17 -9.5t8.5 -20t2.5 -34v-294q0 -23 -9 -32t-31 -9h-148zM217 691q0 23 -6.5 30.5t-25.5 7.5h-69q-19 0 -25 -7.5t-6 -30.5v-228q0 -14 5 -19.5t19 -5.5h84q24 0 24 25
v228z" />
    <glyph glyph-name="foursuperior" unicode="&#x2074;" horiz-adv-x="322" 
d="M26 409zM208 409v63h-182v44l155 294h79v-304h39v-34h-39v-63h-52zM208 719q0 4 -3 4t-4 -3l-120 -207q-2 -4 -2 -7h129v213z" />
    <glyph glyph-name="fivesuperior" unicode="&#x2075;" horiz-adv-x="307" 
d="M36 409zM76 409q-23 0 -31.5 9t-8.5 32v40h49v-27q0 -14 5 -19.5t19 -5.5h86q16 0 22 6t6 23v48q0 20 -7.5 27.5t-25.5 7.5h-154v260h236v-81h-187v-150h129q33 0 45 -13.5t12 -50.5v-57q0 -31 -9 -40t-38 -9h-148z" />
    <glyph glyph-name="sixsuperior" unicode="&#x2076;" horiz-adv-x="305" 
d="M37 409zM77 409q-23 0 -31.5 9t-8.5 32v294q0 21 2.5 34t8.5 20t17 9.5t28 2.5h119q17 0 28 -2.5t17 -9.5t8.5 -20t2.5 -34v-139h-52v86q0 23 -6.5 30.5t-25.5 7.5h-66q-19 0 -25.5 -7.5t-6.5 -30.5v-109q0 -19 20 -19h118q26 0 34 -10.5t8 -34.5v-68q0 -23 -10 -32
t-35 -9h-144zM218 507q0 27 -26 27h-86q-16 0 -20 11v-82q0 -25 25 -25h80q15 0 21 6t6 20v43z" />
    <glyph glyph-name="sevensuperior" unicode="&#x2077;" horiz-adv-x="276" 
d="M27 409zM72 409q2 40 12.5 83.5t27.5 85.5t39.5 79t49.5 64q2 2 2 5t-4 3h-172v81h219v-98q-24 -26 -44 -58.5t-34 -70t-22 -77t-8 -78.5v-10t1 -9h-67z" />
    <glyph glyph-name="eightsuperior" unicode="&#x2078;" horiz-adv-x="311" 
d="M37 409zM73 409q-21 0 -28.5 11t-7.5 35v34q0 28 9 37.5t29 11.5q-20 2 -29 13t-9 37v160q0 20 2 32t8 19t16 9t26 2h133q16 0 26 -2t16 -9t8 -19t2 -32v-160q0 -26 -9.5 -37t-29.5 -13q20 -2 29.5 -11.5t9.5 -37.5v-34q0 -24 -8 -35t-28 -11h-165zM223 694q0 21 -5.5 28
t-22.5 7h-80q-17 0 -22.5 -7t-5.5 -28v-111q0 -18 7.5 -25t27.5 -7h66q19 0 27 7t8 25v111zM223 490q0 19 -8 25.5t-27 6.5h-66q-20 0 -27.5 -6.5t-7.5 -25.5v-25q0 -27 22 -27h92q22 0 22 27v25z" />
    <glyph glyph-name="ninesuperior" unicode="&#x2079;" horiz-adv-x="304" 
d="M36 409zM80 409q-25 0 -34.5 9t-9.5 33v42h51v-30q0 -25 27 -25h79q14 0 19 5.5t5 19.5v65q0 20 -20 20h-117q-26 0 -34.5 10.5t-8.5 33.5v152q0 42 11 54t40 12h131q28 0 37.5 -12t9.5 -54v-294q0 -23 -8.5 -32t-31.5 -9h-146zM217 690q0 24 -6.5 31.5t-24.5 7.5h-68
q-20 0 -26.5 -8t-6.5 -31v-84q0 -27 26 -27h86q17 0 20 -11v122z" />
    <glyph glyph-name="zeroinferior" unicode="&#x2080;" horiz-adv-x="303" 
d="M77 -10q-23 0 -31.5 9t-8.5 32v294q0 21 2.5 34t8.5 20t17 9.5t28 2.5h116q17 0 28 -2.5t17 -9.5t8.5 -20t2.5 -34v-294q0 -23 -9 -32t-31 -9h-148zM217 272q0 23 -6.5 30.5t-25.5 7.5h-69q-19 0 -25 -7.5t-6 -30.5v-228q0 -14 5 -19.5t19 -5.5h84q24 0 24 25v228z" />
    <glyph glyph-name="oneinferior" unicode="&#x2081;" horiz-adv-x="191" 
d="M97 -10v340q0 3 -3 3q-2 0 -3 -3l-45 -95l-28 15l69 141h67v-401h-57z" />
    <glyph glyph-name="twoinferior" unicode="&#x2082;" horiz-adv-x="306" 
d="M37 -10v54q0 24 9 37t29 21l115 41q15 5 21 15.5t6 24.5v89q0 23 -6 30.5t-26 7.5h-70q-17 0 -23 -7.5t-6 -30.5v-104h-50v157q0 42 10.5 54t43.5 12h122q35 0 46 -12.5t11 -53.5v-147q0 -17 -8 -31.5t-29 -22.5l-122 -46q-25 -9 -25 -36v-23h185v-29h-233z" />
    <glyph glyph-name="threeinferior" unicode="&#x2083;" horiz-adv-x="304" 
d="M77 -10q-23 0 -31.5 9t-8.5 32v51h48v-38q0 -25 24 -25h86q22 0 22 27v28q0 18 -8 25t-27 7h-58v28h58q18 0 26.5 7t8.5 25v109q0 21 -5.5 28t-22.5 7h-72q-18 0 -25 -7.5t-7 -30.5v-103h-48v156q0 21 2.5 34t8.5 20t17 9.5t28 2.5h122q16 0 26 -2t16 -9t8 -19t2 -32
v-159q0 -26 -9.5 -37t-29.5 -13q20 -2 29.5 -11.5t9.5 -36.5v-36q0 -24 -8 -35t-28 -11h-154z" />
    <glyph glyph-name="fourinferior" unicode="&#x2084;" horiz-adv-x="322" 
d="M208 -10v63h-182v44l155 294h79v-304h39v-34h-39v-63h-52zM208 300q0 4 -3 4t-4 -3l-120 -207q-2 -4 -2 -7h129v213z" />
    <glyph glyph-name="fiveinferior" unicode="&#x2085;" horiz-adv-x="307" 
d="M76 -10q-23 0 -31.5 9t-8.5 32v40h49v-27q0 -14 5 -19.5t19 -5.5h86q16 0 22 6t6 23v48q0 20 -7.5 27.5t-25.5 7.5h-154v260h236v-81h-187v-150h129q33 0 45 -13.5t12 -50.5v-57q0 -31 -9 -40t-38 -9h-148z" />
    <glyph glyph-name="sixinferior" unicode="&#x2086;" horiz-adv-x="305" 
d="M77 -10q-23 0 -31.5 9t-8.5 32v294q0 21 2.5 34t8.5 20t17 9.5t28 2.5h119q17 0 28 -2.5t17 -9.5t8.5 -20t2.5 -34v-139h-52v86q0 23 -6.5 30.5t-25.5 7.5h-66q-19 0 -25.5 -7.5t-6.5 -30.5v-109q0 -19 20 -19h118q26 0 34 -10.5t8 -34.5v-68q0 -23 -10 -32t-35 -9h-144z
M218 88q0 27 -26 27h-86q-16 0 -20 11v-82q0 -25 25 -25h80q15 0 21 6t6 20v43z" />
    <glyph glyph-name="seveninferior" unicode="&#x2087;" horiz-adv-x="276" 
d="M72 -10q2 40 12.5 83.5t27.5 85.5t39.5 79t49.5 64q2 2 2 5t-4 3h-172v81h219v-98q-24 -26 -44 -58.5t-34 -70t-22 -77t-8 -78.5v-10t1 -9h-67z" />
    <glyph glyph-name="eightinferior" unicode="&#x2088;" horiz-adv-x="311" 
d="M73 -10q-21 0 -28.5 11t-7.5 35v34q0 28 9 37.5t29 11.5q-20 2 -29 13t-9 37v160q0 20 2 32t8 19t16 9t26 2h133q16 0 26 -2t16 -9t8 -19t2 -32v-160q0 -26 -9.5 -37t-29.5 -13q20 -2 29.5 -11.5t9.5 -37.5v-34q0 -24 -8 -35t-28 -11h-165zM223 275q0 21 -5.5 28t-22.5 7
h-80q-17 0 -22.5 -7t-5.5 -28v-111q0 -18 7.5 -25t27.5 -7h66q19 0 27 7t8 25v111zM223 71q0 19 -8 25.5t-27 6.5h-66q-20 0 -27.5 -6.5t-7.5 -25.5v-25q0 -27 22 -27h92q22 0 22 27v25z" />
    <glyph glyph-name="nineinferior" unicode="&#x2089;" horiz-adv-x="304" 
d="M80 -10q-25 0 -34.5 9t-9.5 33v42h51v-30q0 -25 27 -25h79q14 0 19 5.5t5 19.5v65q0 20 -20 20h-117q-26 0 -34.5 10.5t-8.5 33.5v152q0 42 11 54t40 12h131q28 0 37.5 -12t9.5 -54v-294q0 -23 -8.5 -32t-31.5 -9h-146zM217 271q0 24 -6.5 31.5t-24.5 7.5h-68
q-20 0 -26.5 -8t-6.5 -31v-84q0 -27 26 -27h86q17 0 20 -11v122z" />
    <glyph glyph-name="Euro" unicode="&#x20ac;" horiz-adv-x="592" 
d="M187 0q-45 0 -63 17.5t-18 64.5v114h-61l11 39h50v70h-61l11 39h50v326q0 42 4.5 68.5t17 40.5t34.5 19t56 5h328l-41 -163h-240q-19 0 -31 -3t-19 -11.5t-10 -23.5t-3 -38v-220h232l-11 -39h-221v-70h205l-10 -39h-195v-87q0 -28 11 -39.5t37 -11.5h243v-58h-306z" />
    <glyph glyph-name="trademark" unicode="&#x2122;" horiz-adv-x="725" 
d="M599 417v250h-3q-7 0 -8 -6l-68 -238q-2 -6 -10 -6h-30q-9 0 -10 6l-68 238q-2 6 -8 6h-3v-250h-50v386h40q23 0 30 -25l80 -282q1 -3 4 -3q2 0 4 3l80 282q7 25 30 25h40v-386h-50zM151 417v295q0 10 -10 10h-83v81h237v-81h-83q-10 0 -10 -10v-295h-51z" />
    <glyph glyph-name="onethird" unicode="&#x2153;" horiz-adv-x="711" 
d="M45 0zM135 409v340q0 3 -3 3q-2 0 -3 -3l-45 -95l-28 15l69 141h67v-401h-57zM45 -38l501 878h47l-499 -878h-49zM475 -10q-23 0 -31.5 9t-8.5 32v51h48v-38q0 -25 24 -25h86q22 0 22 27v28q0 18 -8 25t-27 7h-58v28h58q18 0 26.5 7t8.5 25v109q0 21 -5.5 28t-22.5 7h-72
q-18 0 -25 -7.5t-7 -30.5v-103h-48v156q0 21 2.5 34t8.5 20t17 9.5t28 2.5h122q16 0 26 -2t16 -9t8 -19t2 -32v-159q0 -26 -9.5 -37t-29.5 -13q20 -2 29.5 -11.5t9.5 -36.5v-36q0 -24 -8 -35t-28 -11h-154z" />
    <glyph glyph-name="twothirds" unicode="&#x2154;" horiz-adv-x="727" 
d="M45 0zM46 409v54q0 24 9 37t29 21l115 41q15 5 21 15.5t6 24.5v89q0 23 -6 30.5t-26 7.5h-70q-17 0 -23 -7.5t-6 -30.5v-104h-50v157q0 42 10.5 54t43.5 12h122q35 0 46 -12.5t11 -53.5v-147q0 -17 -8 -31.5t-29 -22.5l-122 -46q-25 -9 -25 -36v-23h185v-29h-233zM91 -38
l501 878h47l-499 -878h-49zM491 -10q-23 0 -31.5 9t-8.5 32v51h48v-38q0 -25 24 -25h86q22 0 22 27v28q0 18 -8 25t-27 7h-58v28h58q18 0 26.5 7t8.5 25v109q0 21 -5.5 28t-22.5 7h-72q-18 0 -25 -7.5t-7 -30.5v-103h-48v156q0 21 2.5 34t8.5 20t17 9.5t28 2.5h122
q16 0 26 -2t16 -9t8 -19t2 -32v-159q0 -26 -9.5 -37t-29.5 -13q20 -2 29.5 -11.5t9.5 -36.5v-36q0 -24 -8 -35t-28 -11h-154z" />
    <glyph glyph-name="oneeighth" unicode="&#x215b;" horiz-adv-x="718" 
d="M45 0zM135 409v340q0 3 -3 3q-2 0 -3 -3l-45 -95l-28 15l69 141h67v-401h-57zM45 -38l501 878h47l-499 -878h-49zM471 -10q-21 0 -28.5 11t-7.5 35v34q0 28 9 37.5t29 11.5q-20 2 -29 13t-9 37v160q0 20 2 32t8 19t16 9t26 2h133q16 0 26 -2t16 -9t8 -19t2 -32v-160
q0 -26 -9.5 -37t-29.5 -13q20 -2 29.5 -11.5t9.5 -37.5v-34q0 -24 -8 -35t-28 -11h-165zM621 275q0 21 -5.5 28t-22.5 7h-80q-17 0 -22.5 -7t-5.5 -28v-111q0 -18 7.5 -25t27.5 -7h66q19 0 27 7t8 25v111zM621 71q0 19 -8 25.5t-27 6.5h-66q-20 0 -27.5 -6.5t-7.5 -25.5v-25
q0 -27 22 -27h92q22 0 22 27v25z" />
    <glyph glyph-name="threeeighths" unicode="&#x215c;" horiz-adv-x="731" 
d="M45 0zM85 409q-23 0 -31.5 9t-8.5 32v51h48v-38q0 -25 24 -25h86q22 0 22 27v28q0 18 -8 25t-27 7h-58v28h58q18 0 26.5 7t8.5 25v109q0 21 -5.5 28t-22.5 7h-72q-18 0 -25 -7.5t-7 -30.5v-103h-48v156q0 21 2.5 34t8.5 20t17 9.5t28 2.5h122q16 0 26 -2t16 -9t8 -19
t2 -32v-159q0 -26 -9.5 -37t-29.5 -13q20 -2 29.5 -11.5t9.5 -36.5v-36q0 -24 -8 -35t-28 -11h-154zM88 -38l501 878h47l-499 -878h-49zM484 -10q-21 0 -28.5 11t-7.5 35v34q0 28 9 37.5t29 11.5q-20 2 -29 13t-9 37v160q0 20 2 32t8 19t16 9t26 2h133q16 0 26 -2t16 -9
t8 -19t2 -32v-160q0 -26 -9.5 -37t-29.5 -13q20 -2 29.5 -11.5t9.5 -37.5v-34q0 -24 -8 -35t-28 -11h-165zM634 275q0 21 -5.5 28t-22.5 7h-80q-17 0 -22.5 -7t-5.5 -28v-111q0 -18 7.5 -25t27.5 -7h66q19 0 27 7t8 25v111zM634 71q0 19 -8 25.5t-27 6.5h-66
q-20 0 -27.5 -6.5t-7.5 -25.5v-25q0 -27 22 -27h92q22 0 22 27v25z" />
    <glyph glyph-name="fiveeighths" unicode="&#x215d;" horiz-adv-x="745" 
d="M45 0zM85 409q-23 0 -31.5 9t-8.5 32v40h49v-27q0 -14 5 -19.5t19 -5.5h86q16 0 22 6t6 23v48q0 20 -7.5 27.5t-25.5 7.5h-154v260h236v-81h-187v-150h129q33 0 45 -13.5t12 -50.5v-57q0 -31 -9 -40t-38 -9h-148zM92 -38l501 878h47l-499 -878h-49zM498 -10
q-21 0 -28.5 11t-7.5 35v34q0 28 9 37.5t29 11.5q-20 2 -29 13t-9 37v160q0 20 2 32t8 19t16 9t26 2h133q16 0 26 -2t16 -9t8 -19t2 -32v-160q0 -26 -9.5 -37t-29.5 -13q20 -2 29.5 -11.5t9.5 -37.5v-34q0 -24 -8 -35t-28 -11h-165zM648 275q0 21 -5.5 28t-22.5 7h-80
q-17 0 -22.5 -7t-5.5 -28v-111q0 -18 7.5 -25t27.5 -7h66q19 0 27 7t8 25v111zM648 71q0 19 -8 25.5t-27 6.5h-66q-20 0 -27.5 -6.5t-7.5 -25.5v-25q0 -27 22 -27h92q22 0 22 27v25z" />
    <glyph glyph-name="seveneighths" unicode="&#x215e;" horiz-adv-x="723" 
d="M45 0zM90 409q2 40 12.5 83.5t27.5 85.5t39.5 79t49.5 64q2 2 2 5t-4 3h-172v81h219v-98q-24 -26 -44 -58.5t-34 -70t-22 -77t-8 -78.5v-10t1 -9h-67zM60 -38l501 878h47l-499 -878h-49zM476 -10q-21 0 -28.5 11t-7.5 35v34q0 28 9 37.5t29 11.5q-20 2 -29 13t-9 37v160
q0 20 2 32t8 19t16 9t26 2h133q16 0 26 -2t16 -9t8 -19t2 -32v-160q0 -26 -9.5 -37t-29.5 -13q20 -2 29.5 -11.5t9.5 -37.5v-34q0 -24 -8 -35t-28 -11h-165zM626 275q0 21 -5.5 28t-22.5 7h-80q-17 0 -22.5 -7t-5.5 -28v-111q0 -18 7.5 -25t27.5 -7h66q19 0 27 7t8 25v111z
M626 71q0 19 -8 25.5t-27 6.5h-66q-20 0 -27.5 -6.5t-7.5 -25.5v-25q0 -27 22 -27h92q22 0 22 27v25z" />
    <glyph glyph-name="minus" unicode="&#x2212;" horiz-adv-x="563" 
d="M45 355v39h473v-39h-473z" />
    <glyph glyph-name="notequal" unicode="&#x2260;" horiz-adv-x="563" 
d="M344 468l-106 -186h280v-39h-302l-160 -281h-49l160 281h-122v39h144l106 186h-250v39h273l190 333h47l-189 -333h152v-39h-174z" />
    <glyph glyph-name="lessequal" unicode="&#x2264;" horiz-adv-x="563" 
d="M45 348v53l473 191v-41l-433 -176l433 -176v-41zM45 44v39h473v-39h-473z" />
    <glyph glyph-name="greaterequal" unicode="&#x2265;" horiz-adv-x="563" 
d="M45 158v41l433 176l-433 176v41l473 -191v-53zM45 44v39h473v-39h-473z" />
    <glyph glyph-name="uniE000" unicode="&#xe000;" horiz-adv-x="566" 
d="M220 0l14 235l-227 568h116l155 -400q1 -4 5 -4t5 4l155 400h115l-226 -568l14 -235h-126z" />
    <glyph glyph-name="uniE001" unicode="&#xe001;" horiz-adv-x="562" 
d="M414 0v162q0 38 -16 51.5t-54 13.5h-128q-37 0 -53.5 -13.5t-16.5 -51.5v-162h-102v161q0 28 5 46t14.5 28.5t25 15.5t36.5 7q-42 4 -61.5 25t-19.5 76v444h102v-425q0 -21 1 -38t7.5 -29.5t21 -19t40.5 -6.5h128q26 0 40.5 6.5t21 19t7.5 29.5t1 38v425h104v-444
q0 -55 -19.5 -76t-61.5 -25q21 -2 36.5 -7t25 -15.5t14.5 -28.5t5 -46v-161h-104z" />
    <glyph glyph-name=".ttfautohint" horiz-adv-x="77" 
d="M0 0z" />
    </font>
</defs>
</svg>
